<?xml version="1.0" standalone="no"?>
<!DOCTYPE svg PUBLIC "-//W3C//DTD SVG 20010904//EN"
 "http://www.w3.org/TR/2001/REC-SVG-20010904/DTD/svg10.dtd">
<svg version="1.0" xmlns="http://www.w3.org/2000/svg"
 width="2000.000000pt" height="2000.000000pt" viewBox="0 0 2000.000000 2000.000000"
 preserveAspectRatio="xMidYMid meet">
<metadata>
Created by potrace 1.14, written by Peter Selinger 2001-2017
</metadata>
<g transform="translate(0.000000,2000.000000) scale(0.100000,-0.100000)"
fill="#000000" stroke="none">
<path d="M0 14371 l0 -5628 32 -7 c19 -4 49 -24 75 -51 36 -38 43 -52 43 -86
0 -76 -70 -143 -130 -124 l-20 6 0 -4240 0 -4241 10000 0 10000 0 0 4435 c0
2744 -4 4435 -9 4435 -5 0 -21 -4 -36 -10 -19 -7 -34 -6 -55 5 -38 20 -56 49
-64 104 -6 37 -3 50 19 82 14 22 30 39 35 39 18 0 25 2 42 11 10 5 27 5 42 -1
l26 -10 0 5430 c0 2987 -4 5430 -8 5430 -5 0 -15 11 -22 25 l-13 25 -9979 0
-9978 0 0 -5629z m18450 5467 c52 -28 74 -74 66 -138 -8 -64 -51 -100 -121
-100 -112 0 -188 105 -139 195 19 36 35 45 104 55 25 4 46 8 47 8 0 1 20 -8
43 -20z m-14448 -1746 c38 -40 41 -71 14 -117 -28 -45 -96 -86 -129 -77 -61
18 -98 78 -90 144 6 45 40 79 90 88 48 8 83 -4 115 -38z m5512 -146 c18 -8 45
-27 60 -42 23 -25 27 -35 23 -73 -14 -127 -194 -152 -244 -34 -28 69 10 139
85 153 20 4 38 8 40 9 1 0 18 -5 36 -13z m-8800 -872 c70 -51 96 -181 53 -262
-69 -130 -234 -99 -261 49 -9 51 9 163 31 189 42 51 124 62 177 24z m16332
-865 c45 -21 91 -80 100 -128 5 -26 -25 -139 -44 -167 -22 -31 -71 -48 -133
-45 -62 3 -169 139 -169 217 0 62 41 116 107 140 43 15 80 11 139 -17z m-8093
-402 c15 -7 27 -18 27 -24 0 -7 4 -13 10 -13 5 0 24 -30 42 -67 36 -74 40
-130 18 -214 -30 -111 -184 -178 -297 -129 -50 21 -113 89 -113 122 0 19 -20
38 -40 38 -13 0 -16 11 -17 50 0 28 4 50 9 50 5 0 16 16 24 36 18 43 79 108
93 100 5 -4 12 -2 16 4 3 5 14 10 24 10 10 0 24 7 31 15 7 9 15 14 17 11 2 -2
16 2 30 9 31 16 90 17 126 2z m6598 -602 c59 -21 102 -77 93 -120 -12 -58 -28
-79 -75 -99 -59 -24 -91 -16 -141 33 -42 43 -48 77 -24 135 14 33 54 63 87 65
8 1 35 -6 60 -14z m-5855 -370 c33 -8 71 -24 86 -35 15 -11 33 -20 41 -20 17
0 63 -48 75 -79 21 -57 -21 -121 -127 -194 -97 -67 -207 -40 -275 66 -54 84
-86 150 -79 161 4 5 7 24 7 40 1 24 8 34 31 45 64 31 160 37 241 16z m475 -21
c26 -10 53 -28 61 -41 13 -22 13 -30 0 -69 -22 -69 -61 -104 -113 -104 -36 0
-47 6 -82 42 -35 37 -39 45 -34 80 6 45 28 74 72 93 40 18 43 18 96 -1z m7449
-354 c52 -26 90 -83 90 -133 0 -31 -7 -46 -33 -72 -41 -41 -77 -51 -127 -36
-107 32 -156 156 -87 218 53 48 95 54 157 23z m2042 -63 c37 -41 50 -88 28
-102 -5 -3 -10 -17 -10 -30 0 -33 -58 -80 -119 -95 -63 -15 -105 -3 -151 45
-28 29 -33 41 -32 82 0 40 5 52 31 75 17 16 28 28 24 28 -5 0 6 6 22 14 104
46 154 42 207 -17z m-16918 -301 c9 -32 7 -48 -4 -41 -5 3 -20 -6 -33 -21 -19
-21 -29 -26 -50 -20 -18 4 -24 11 -21 21 4 8 1 15 -5 15 -19 0 -12 28 8 35 11
3 22 12 25 20 3 9 18 14 40 13 26 -1 36 -6 40 -22z m1949 -50 c18 -7 44 -26
58 -42 69 -76 54 -160 -38 -211 -50 -28 -108 -9 -162 52 -26 30 -31 44 -31 85
0 41 5 55 31 84 19 23 41 36 62 39 18 2 36 5 40 5 4 1 22 -4 40 -12z m5534
-96 c11 -13 12 -13 13 2 0 17 1 17 20 1 22 -19 60 -25 60 -10 0 6 11 0 25 -13
14 -13 35 -24 47 -26 13 -1 25 -3 28 -3 3 -1 -2 -6 -10 -12 -12 -8 -10 -9 8
-4 17 5 29 1 43 -14 13 -14 16 -21 7 -22 -10 0 -10 -2 0 -6 6 -2 12 -11 12
-19 0 -8 6 -14 14 -14 7 0 20 -7 27 -17 11 -13 11 -17 1 -21 -10 -3 -10 -7 -1
-18 9 -11 15 -11 25 -3 11 9 14 6 14 -15 0 -17 5 -26 16 -26 9 0 12 -5 8 -11
-4 -7 3 -19 16 -29 15 -12 20 -22 14 -31 -4 -7 -9 -20 -9 -29 -4 -41 -31 -99
-63 -132 -37 -39 -62 -48 -150 -54 -26 -1 -72 -6 -104 -10 -48 -5 -63 -3 -103
17 -108 54 -169 181 -146 305 17 92 75 189 124 207 9 3 17 11 17 16 0 14 34 8
47 -9z m-9108 -33 c13 -6 33 -24 44 -38 36 -50 0 -142 -70 -178 -35 -18 -60
-13 -97 20 -60 52 -64 157 -6 193 30 19 96 20 129 3z m6666 -766 c3 -5 1 -12
-5 -16 -6 -4 -2 -15 10 -27 26 -28 25 -36 -5 -50 -33 -15 -71 5 -78 41 -7 33
-1 41 29 41 13 0 24 5 24 10 0 13 17 13 25 1z m6703 -51 c43 -26 56 -58 48
-112 -13 -82 -110 -125 -177 -77 -58 41 -73 106 -37 159 34 51 110 64 166 30z
m-14141 -30 c18 -10 44 -37 59 -59 22 -34 25 -47 20 -83 -11 -74 -79 -129
-141 -114 -63 16 -134 117 -121 172 9 33 67 91 98 97 44 8 53 7 85 -13z
m15791 -195 c27 -30 33 -43 28 -66 -8 -44 -48 -97 -80 -109 -55 -19 -82 -13
-115 27 -44 53 -44 115 0 162 28 31 33 33 81 29 44 -5 57 -11 86 -43z m-8350
14 c-18 -7 -33 -7 -45 0 -14 8 -9 10 27 10 42 -1 43 -1 18 -10z m-6841 -330
c58 -55 69 -121 28 -181 -47 -69 -128 -73 -188 -10 -24 25 -47 86 -47 124 0
21 47 77 74 89 36 15 105 4 133 -22z m4718 -34 c75 -36 68 -130 -15 -188 -33
-23 -79 -21 -110 4 -21 18 -25 29 -25 84 0 53 4 67 24 89 29 30 75 34 126 11z
m7458 -370 c-3 -9 -8 -14 -10 -11 -3 3 -2 9 2 15 9 16 15 13 8 -4z m71 -10 c4
-13 2 -14 -14 -5 -21 11 -34 -3 -28 -30 5 -19 -21 -24 -28 -5 -8 19 22 55 46
55 10 0 20 -7 24 -15z m-1634 -21 c0 -8 -4 -12 -10 -9 -5 3 -10 10 -10 16 0 5
5 9 10 9 6 0 10 -7 10 -16z m-5880 -454 c0 -5 -5 -10 -11 -10 -5 0 -7 5 -4 10
3 6 8 10 11 10 2 0 4 -4 4 -10z m20 -40 c0 -5 -4 -10 -10 -10 -5 0 -10 5 -10
10 0 6 5 10 10 10 6 0 10 -4 10 -10z m-100 -22 c0 -13 -23 -5 -28 10 -2 7 2
10 12 6 9 -3 16 -11 16 -16z m73 -5 c-7 -2 -19 -2 -25 0 -7 3 -2 5 12 5 14 0
19 -2 13 -5z m52 -35 c14 -22 14 -23 -9 -31 -14 -5 -23 -14 -20 -21 3 -7 -1
-18 -9 -25 -20 -16 -33 3 -40 57 l-5 42 33 0 c24 0 39 -7 50 -22z m3216 -18
c11 0 19 -6 19 -12 0 -9 4 -8 10 2 8 13 15 12 52 -6 63 -32 79 -36 95 -22 12
10 14 9 11 -6 -2 -11 6 -23 17 -30 28 -16 35 -28 24 -42 -11 -13 -72 -1 -77
15 -2 5 -11 7 -21 4 -10 -3 -22 0 -25 6 -4 6 -17 11 -30 11 -13 0 -31 9 -40
19 -10 11 -28 22 -42 25 -13 4 -24 13 -24 22 0 8 -4 12 -10 9 -12 -7 -50 12
-50 25 0 6 16 3 36 -5 20 -8 45 -15 55 -15z m-3341 1 c0 -5 3 -18 6 -28 5 -17
5 -17 -9 0 -15 18 -27 22 -27 9 0 -4 13 -16 30 -25 17 -10 27 -23 24 -31 -3
-8 -2 -16 3 -19 13 -8 -1 -137 -16 -146 -7 -5 -11 -17 -9 -27 2 -12 -3 -19
-12 -19 -21 0 -26 46 -6 61 16 11 16 13 1 28 -19 19 -37 124 -23 133 5 3 7 17
3 31 -4 16 -1 28 7 33 17 11 28 11 28 0z m3651 -60 c-7 -5 -11 -13 -7 -19 9
-16 -6 -21 -32 -11 -19 7 -21 11 -10 23 7 9 24 15 38 15 18 1 21 -2 11 -8z
m44 0 c3 -5 1 -12 -5 -16 -5 -3 -10 1 -10 9 0 18 6 21 15 7z m55 -11 c8 -5 11
-12 8 -16 -10 -9 -38 3 -38 16 0 12 10 13 30 0z m55 -10 c-3 -5 -13 -10 -21
-10 -8 0 -12 5 -9 10 3 6 13 10 21 10 8 0 12 -4 9 -10z m135 -15 c10 -12 10
-15 -4 -15 -9 0 -16 7 -16 15 0 8 2 15 4 15 2 0 9 -7 16 -15z m-35 -5 c-3 -5
-10 -10 -16 -10 -5 0 -9 5 -9 10 0 6 7 10 16 10 8 0 12 -4 9 -10z m112 -16
c-3 -3 -12 -4 -19 -1 -8 3 -5 6 6 6 11 1 17 -2 13 -5z m3313 -171 c32 -17 53
-36 56 -50 5 -18 11 -22 30 -17 25 6 30 -3 26 -48 -1 -10 2 -18 7 -18 10 0
-12 -87 -35 -135 -28 -60 -112 -103 -169 -86 -99 28 -170 92 -184 165 -14 78
7 186 36 186 7 0 18 9 25 21 12 18 20 20 85 15 53 -4 87 -13 123 -33z m4576
-32 c109 -50 115 -177 10 -229 -40 -20 -51 -22 -81 -12 -44 14 -91 71 -98 117
-8 48 14 98 55 123 41 25 61 25 114 1z m-8156 -176 c0 -8 -4 -15 -10 -15 -5 0
-10 7 -10 15 0 8 5 15 10 15 6 0 10 -7 10 -15z m25 -4 c3 -5 1 -12 -5 -16 -5
-3 -10 1 -10 9 0 18 6 21 15 7z m59 -20 c4 -5 -3 -7 -14 -4 -23 6 -26 13 -6
13 8 0 17 -4 20 -9z m-334 -51 c0 -5 -4 -10 -9 -10 -6 0 -13 5 -16 10 -3 6 1
10 9 10 9 0 16 -4 16 -10z m-4723 -26 c81 -61 84 -163 7 -223 -34 -27 -70 -27
-124 2 -52 27 -80 75 -80 137 0 38 5 51 28 72 33 31 46 36 96 37 27 1 49 -7
73 -25z m4613 12 c0 -2 -7 -6 -15 -10 -8 -3 -15 -1 -15 4 0 6 7 10 15 10 8 0
15 -2 15 -4z m-3310 -18 c27 -9 40 -19 40 -30 0 -10 -4 -18 -10 -18 -5 0 -10
4 -10 8 0 8 -13 16 -62 40 -15 7 -2 -79 12 -88 8 -6 10 -10 5 -10 -22 0 -35
25 -35 67 0 47 2 49 60 31z m400 -18 c0 -5 -2 -10 -4 -10 -3 0 -8 5 -11 10 -3
6 -1 10 4 10 6 0 11 -4 11 -10z m2620 -79 c0 -18 -17 -20 -36 -6 -18 14 -18
14 9 15 15 0 27 -4 27 -9z m-520 -45 c0 -3 -4 -8 -10 -11 -5 -3 -10 -1 -10 4
0 6 5 11 10 11 6 0 10 -2 10 -4z m268 -10 c-2 -5 7 -12 20 -17 35 -13 28 -33
-9 -25 -24 4 -35 2 -45 -11 -9 -12 -13 -13 -14 -5 0 10 -5 10 -21 2 -26 -14
-171 -9 -176 6 -5 15 29 24 106 30 37 2 68 9 73 16 6 11 10 10 16 0 7 -10 11
-10 22 3 13 16 34 17 28 1z m4928 -2 c71 -34 119 -126 95 -181 -31 -71 -125
-102 -198 -65 -59 31 -93 75 -93 123 0 107 99 169 196 123z m-5166 2 c0 -3 -4
-8 -10 -11 -5 -3 -10 -1 -10 4 0 6 5 11 10 11 6 0 10 -2 10 -4z m334 -11 c19
-15 19 -15 -1 -15 -11 0 -23 7 -27 15 -7 19 3 19 28 0z m6735 -26 c50 -28 81
-76 81 -125 0 -51 -17 -83 -59 -111 -42 -29 -78 -29 -134 -2 -51 25 -87 73
-93 126 -12 101 107 167 205 112z m-6225 -4 c3 -8 1 -15 -4 -15 -6 0 -10 7
-10 15 0 8 2 15 4 15 2 0 6 -7 10 -15z m206 -15 c0 -5 -7 -10 -15 -10 -8 0
-15 5 -15 10 0 6 7 10 15 10 8 0 15 -4 15 -10z m-1289 -28 c-7 -2 -18 1 -23 6
-8 8 -4 9 13 5 13 -4 18 -8 10 -11z m-61 -17 c7 -8 21 -15 31 -15 10 0 21 -4
24 -10 10 -16 -33 -12 -60 6 -25 16 -33 34 -16 34 5 0 14 -7 21 -15z m920 -1
c0 -2 -7 -4 -15 -4 -8 0 -15 4 -15 10 0 5 7 7 15 4 8 -4 15 -8 15 -10z m260
-24 c0 -5 -7 -10 -15 -10 -8 0 -15 5 -15 10 0 6 7 10 15 10 8 0 15 -4 15 -10z
m30 0 c0 -5 -4 -10 -10 -10 -5 0 -10 5 -10 10 0 6 5 10 10 10 6 0 10 -4 10
-10z m60 -12 c0 -13 -23 -5 -28 10 -2 7 2 10 12 6 9 -3 16 -11 16 -16z m134 3
c3 -4 17 -6 31 -3 19 3 25 0 25 -12 0 -14 -6 -16 -37 -10 -46 8 -55 13 -48 25
8 11 22 12 29 0z m-1496 -16 c-15 -8 -35 -12 -45 -8 -16 6 -15 8 7 14 14 4 34
7 45 8 17 0 15 -2 -7 -14z m1505 -63 c20 -9 37 -20 37 -25 0 -4 4 -6 9 -2 5 3
22 0 38 -6 15 -6 37 -15 48 -19 11 -4 31 -12 45 -18 14 -5 45 -15 70 -23 25
-7 69 -23 99 -37 43 -20 50 -26 37 -34 -11 -6 -21 -4 -32 6 -8 9 -27 16 -42
16 -44 1 -145 28 -153 42 -4 7 -11 10 -14 6 -4 -4 -26 4 -49 17 -24 13 -55 22
-70 21 -35 -4 -74 14 -82 37 -3 9 -17 30 -30 47 -35 41 -21 55 19 19 17 -17
49 -38 70 -47z m-2548 48 c3 -6 -1 -7 -9 -4 -18 7 -21 14 -7 14 6 0 13 -4 16
-10z m-1018 -22 c-3 -8 -6 -5 -6 6 -1 11 2 17 5 13 3 -3 4 -12 1 -19z m1120
-11 c4 -6 -2 -8 -18 -4 -13 4 -30 7 -37 7 -7 0 -11 4 -8 9 7 11 54 2 63 -12z
m250 -23 c4 -12 -27 -24 -62 -24 -19 0 -49 32 -40 42 9 8 99 -8 102 -18z
m-167 6 c0 -5 -4 -10 -9 -10 -6 0 -13 5 -16 10 -3 6 1 10 9 10 9 0 16 -4 16
-10z m35 -20 c-6 -9 -9 -9 -16 1 -10 17 0 34 13 21 6 -6 7 -16 3 -22z m-1465
6 c0 -3 -4 -8 -10 -11 -5 -3 -10 -1 -10 4 0 6 5 11 10 11 6 0 10 -2 10 -4z
m2053 -21 c-6 -17 -25 -15 -31 3 -2 7 5 12 17 12 14 0 19 -5 14 -15z m34 -3
c-10 -10 -17 -24 -17 -31 0 -7 -4 -10 -9 -7 -13 8 11 56 28 56 11 0 11 -4 -2
-18z m-577 -7 c6 -8 9 -19 5 -24 -8 -13 -45 9 -45 26 0 18 25 16 40 -2z m-300
1 c0 -3 -4 -8 -10 -11 -5 -3 -10 -1 -10 4 0 6 5 11 10 11 6 0 10 -2 10 -4z
m-96 -22 c5 -14 4 -15 -9 -4 -17 14 -19 20 -6 20 5 0 12 -7 15 -16z m56 6 c0
-5 -4 -10 -10 -10 -5 0 -10 5 -10 10 0 6 5 10 10 10 6 0 10 -4 10 -10z m238
-7 c2 -8 -5 -13 -17 -13 -12 0 -21 6 -21 16 0 18 31 15 38 -3z m2233 -47 c26
-28 1 -34 -29 -7 -22 18 -31 38 -13 27 5 -3 12 2 16 12 7 15 8 15 13 -3 2 -11
8 -24 13 -29z m-1438 18 c9 -4 17 -10 17 -15 0 -5 6 -9 14 -9 7 0 19 -7 26
-15 9 -11 23 -14 46 -9 27 5 34 2 44 -16 15 -28 6 -36 -25 -22 -34 16 -35 16
-36 -10 l0 -23 -9 23 c-5 12 -17 22 -27 22 -15 0 -16 -2 -3 -11 12 -8 11 -10
-5 -7 -11 2 -21 9 -21 16 -1 6 -2 17 -3 22 0 6 -10 10 -20 10 -10 0 -21 7 -25
15 -3 8 -16 15 -28 15 -13 0 -30 5 -38 11 -12 8 -7 9 18 6 17 -2 32 1 32 6 0
5 6 6 13 3 6 -3 20 -9 30 -12z m2457 5 c0 -5 5 -9 11 -9 13 0 39 -25 39 -39 0
-6 6 -8 13 -5 15 5 44 -23 34 -32 -7 -7 -98 54 -110 74 -6 9 -13 9 -28 2 -14
-8 -19 -7 -19 3 0 9 12 14 30 15 17 0 30 -4 30 -9z m-3928 -21 c-9 -9 -15 -9
-24 0 -9 9 -7 12 12 12 19 0 21 -3 12 -12z m-52 -39 c-12 -21 -40 -26 -40 -8
0 15 32 39 42 33 5 -3 3 -14 -2 -25z m315 21 c-3 -5 -10 -10 -16 -10 -5 0 -9
5 -9 10 0 6 7 10 16 10 8 0 12 -4 9 -10z m953 -26 c-2 -13 -11 -18 -26 -16
-16 2 -20 -1 -16 -12 8 -20 -25 -34 -36 -16 -15 25 52 87 73 69 5 -4 7 -15 5
-25z m-178 10 c0 -9 -5 -14 -12 -12 -18 6 -21 28 -4 28 9 0 16 -7 16 -16z m60
-4 c0 -5 -5 -10 -11 -10 -5 0 -7 5 -4 10 3 6 8 10 11 10 2 0 4 -4 4 -10z
m6541 -12 c47 -26 64 -64 55 -125 -6 -46 -27 -72 -58 -73 -9 0 -19 -4 -22 -8
-9 -15 -79 -12 -103 3 -49 33 -71 126 -41 175 16 25 65 49 102 50 15 0 46 -10
67 -22z m-7795 -15 c-10 -10 -19 5 -10 18 6 11 8 11 12 0 2 -7 1 -15 -2 -18z
m2954 6 c0 -5 -7 -9 -15 -9 -8 0 -15 7 -15 15 0 9 6 12 15 9 8 -4 15 -10 15
-15z m129 2 c10 -10 15 -24 11 -31 -9 -14 -40 13 -40 36 0 19 6 18 29 -5z
m589 3 c33 -16 45 -32 15 -19 -10 4 -27 8 -37 10 -11 1 -22 7 -24 13 -5 16 9
15 46 -4z m-3604 -78 c9 3 16 1 16 -6 0 -7 8 -9 20 -5 26 8 52 -6 41 -24 -7
-11 -15 -11 -44 -1 -42 16 -69 8 -60 -16 5 -14 3 -16 -13 -10 -10 5 -27 11
-36 13 -10 3 -18 14 -18 25 0 11 -4 16 -11 12 -6 -3 -15 0 -20 7 -6 10 -8 7
-6 -9 2 -13 8 -27 14 -30 6 -4 13 -17 17 -30 4 -12 11 -20 15 -17 5 2 39 -6
77 -18 42 -15 63 -26 55 -31 -7 -4 -24 -5 -39 -1 -15 5 -45 9 -67 10 -22 2
-57 8 -77 13 -22 6 -38 6 -38 1 0 -5 -9 -9 -21 -9 -15 0 -19 -4 -15 -16 8 -22
-3 -38 -18 -25 -6 5 -29 11 -50 13 -41 3 -64 28 -27 28 12 0 21 6 21 14 0 8 7
16 15 20 8 3 15 10 15 16 0 5 -7 10 -15 10 -8 0 -15 -4 -15 -10 0 -5 -12 -10
-27 -11 -25 0 -25 -1 -8 -8 16 -7 9 -10 -30 -16 -27 -4 -58 -9 -67 -11 -19 -6
-37 21 -31 45 8 33 89 54 99 27 3 -8 12 -12 21 -9 10 4 11 8 3 13 -8 5 -4 16
14 35 14 15 26 34 26 41 0 16 70 28 110 19 17 -4 30 -13 30 -21 0 -9 5 -12 10
-9 6 3 10 17 10 30 0 38 22 34 66 -12 28 -29 47 -41 58 -37z m1073 77 c-3 -5
1 -14 9 -21 13 -12 18 -8 15 11 -1 5 3 6 7 3 5 -3 7 -18 4 -33 -5 -25 -4 -27
12 -14 25 21 33 4 8 -19 -25 -24 -32 -25 -32 -5 0 8 -9 23 -20 32 -21 18 -27
53 -9 53 5 0 8 -3 6 -7z m-757 -23 c0 -12 -7 -20 -17 -20 -20 0 -53 -28 -53
-46 0 -14 -60 -34 -100 -33 -24 0 -24 0 -3 9 12 5 26 18 32 28 6 11 26 23 47
26 23 5 38 14 41 26 3 10 15 21 27 23 11 2 22 5 24 6 1 0 2 -8 2 -19z m685 -5
c11 0 23 5 27 10 5 6 8 3 8 -6 0 -9 -11 -21 -24 -28 -28 -16 -61 -2 -69 29 -4
18 -3 18 16 7 12 -6 31 -12 42 -12z m-605 11 c0 -11 -19 -15 -25 -6 -3 5 1 10
9 10 9 0 16 -2 16 -4z m1988 -21 c-3 -3 -9 2 -12 12 -6 14 -5 15 5 6 7 -7 10
-15 7 -18z m345 8 c5 -3 6 -11 3 -19 -4 -10 2 -12 24 -7 31 6 39 -4 19 -24 -8
-8 -1 -18 29 -38 22 -14 46 -25 54 -24 7 1 26 -3 41 -9 16 -7 33 -10 38 -6 13
8 69 -54 69 -76 0 -11 5 -22 10 -25 18 -11 7 -46 -24 -77 -32 -32 -31 -32 -41
2 -7 21 -6 23 6 13 25 -20 40 -1 19 25 -10 12 -22 22 -27 22 -5 0 -39 29 -76
64 -67 65 -124 92 -112 55 4 -13 1 -19 -9 -19 -9 0 -16 6 -16 13 0 9 -2 9 -8
0 -4 -7 -17 -10 -30 -6 -25 6 -30 23 -7 23 8 0 15 7 15 15 0 9 -6 12 -16 8
-10 -4 -20 0 -26 10 -5 10 -14 17 -20 17 -10 0 -42 35 -49 55 -8 20 103 27
134 8z m-2163 -3 c0 -5 -4 -10 -10 -10 -5 0 -10 5 -10 10 0 6 5 10 10 10 6 0
10 -4 10 -10z m208 -12 c-7 -13 -14 -25 -15 -26 -1 -2 -10 1 -20 7 -15 9 -16
10 -2 11 9 0 22 7 29 15 18 22 22 18 8 -7z m2112 12 c0 -5 -4 -10 -10 -10 -5
0 -10 5 -10 10 0 6 5 10 10 10 6 0 10 -4 10 -10z m-1945 -35 c18 -13 35 -21
39 -18 4 4 16 8 27 10 17 3 20 -1 15 -14 -6 -14 -2 -13 17 5 27 26 37 28 37 7
0 -8 5 -15 10 -15 6 0 10 -7 10 -16 0 -14 2 -14 22 0 30 21 37 20 31 -4 -4
-14 0 -20 11 -20 9 0 16 5 16 12 0 6 3 8 6 5 4 -4 -1 -18 -10 -32 -11 -17 -25
-25 -44 -24 -26 0 -26 1 -4 9 12 5 22 14 22 20 0 12 -23 13 -35 1 -6 -5 -32
-12 -58 -15 -45 -7 -49 -6 -80 27 -86 91 -96 112 -32 62z m1875 21 c0 -3 -4
-8 -10 -11 -5 -3 -10 -1 -10 4 0 6 5 11 10 11 6 0 10 -2 10 -4z m-2435 -16
c-3 -5 -13 -10 -21 -10 -8 0 -12 5 -9 10 3 6 13 10 21 10 8 0 12 -4 9 -10z
m843 -12 c16 -16 15 -28 -2 -28 -7 0 -16 9 -19 20 -6 23 3 26 21 8z m-678 -7
c0 -10 -30 -24 -37 -17 -3 3 -2 9 2 15 8 13 35 15 35 2z m2521 -11 c6 0 28 -9
49 -19 22 -11 40 -15 40 -10 0 6 4 8 10 4 5 -3 6 -13 3 -22 -5 -13 -2 -15 11
-10 13 5 17 2 14 -11 -2 -11 -14 -18 -33 -20 -24 -2 -40 6 -73 36 -23 21 -42
47 -41 58 0 11 3 13 6 7 2 -7 9 -13 14 -13z m54 10 c3 -5 -3 -10 -15 -10 -12
0 -18 5 -15 10 3 6 10 10 15 10 5 0 12 -4 15 -10z m-3718 -6 c-3 -3 -12 -4
-19 -1 -8 3 -5 6 6 6 11 1 17 -2 13 -5z m2643 -9 c0 -12 -19 -12 -23 0 -4 9
-1 12 9 8 7 -3 14 -7 14 -8z m2117 9 c-3 -3 -12 -4 -19 -1 -8 3 -5 6 6 6 11 1
17 -2 13 -5z m1406 -53 c9 -34 -2 -51 -32 -51 -44 0 -55 13 -47 56 5 24 10 33
15 25 6 -9 10 -6 14 9 5 21 6 21 25 2 10 -10 21 -29 25 -41z m-4933 45 c0 -3
-4 -8 -10 -11 -5 -3 -10 -1 -10 4 0 6 5 11 10 11 6 0 10 -2 10 -4z m3160 -6
c0 -5 -4 -10 -10 -10 -5 0 -10 5 -10 10 0 6 5 10 10 10 6 0 10 -4 10 -10z
m-2346 -11 c-3 -5 -18 -9 -35 -9 -16 0 -29 -5 -29 -11 0 -6 9 -9 20 -6 13 3
20 0 20 -10 0 -11 -7 -13 -30 -8 -19 4 -30 3 -30 -4 0 -6 8 -11 17 -11 13 0
14 -3 5 -12 -9 -9 -15 -9 -24 0 -19 19 -29 14 -22 -13 5 -20 3 -24 -10 -19 -9
3 -16 2 -16 -3 0 -38 -126 -88 -143 -57 -11 18 -27 18 -27 -1 0 -8 -4 -15 -10
-15 -16 0 -11 27 6 34 24 9 59 7 70 -4 8 -8 15 -6 24 5 11 13 10 14 -4 9 -10
-4 -16 -1 -16 9 0 10 13 18 35 23 21 4 35 12 35 21 0 8 4 12 9 9 5 -3 15 2 22
11 8 9 9 14 2 10 -7 -5 -9 0 -6 14 4 13 9 17 16 10 12 -12 37 -3 37 14 0 16
15 22 57 23 18 0 30 -4 27 -9z m-1118 -14 c18 -14 18 -14 -8 -15 -27 0 -43 12
-31 24 9 9 17 8 39 -9z m160 -34 c2 -2 10 4 18 14 7 11 18 15 25 10 14 -8 -10
-28 -46 -37 -25 -7 -34 9 -26 43 l6 23 9 -24 c5 -14 11 -26 14 -29z m3382 26
c24 -19 6 -17 -34 3 -35 18 -36 19 -9 14 17 -4 36 -11 43 -17z m-528 -3 c0 -8
-4 -12 -10 -9 -5 3 -10 10 -10 16 0 5 5 9 10 9 6 0 10 -7 10 -16z m157 10 c-3
-3 -12 -4 -19 -1 -8 3 -5 6 6 6 11 1 17 -2 13 -5z m-1725 -28 c14 -12 34 -26
43 -30 15 -5 16 -2 11 21 -5 23 -4 25 4 11 6 -10 16 -18 21 -18 15 0 39 -26
39 -42 0 -7 9 -19 20 -26 11 -7 20 -22 20 -33 0 -15 5 -19 15 -15 11 4 15 -1
15 -17 1 -15 15 -31 48 -52 26 -16 60 -45 76 -63 24 -28 34 -32 58 -27 21 5
35 2 49 -11 21 -19 38 -12 21 9 -13 15 -6 27 15 27 8 0 13 -6 12 -12 -2 -24
13 -58 27 -58 7 0 29 -24 47 -53 19 -29 42 -61 53 -71 12 -12 15 -21 8 -23 -7
-2 2 -17 18 -34 17 -16 32 -28 34 -26 2 2 0 37 -5 78 -6 40 -8 76 -5 78 2 2
20 -12 39 -32 36 -37 58 -46 70 -26 4 5 19 8 33 5 30 -7 45 1 55 27 7 18 -7
24 -18 7 -4 -6 -12 -5 -21 3 -8 6 -20 17 -27 22 -7 6 -28 18 -48 27 -36 16
-37 16 -33 -5 2 -12 2 -16 -2 -9 -3 6 -12 12 -21 12 -8 0 -12 6 -9 13 2 6 10
29 17 51 11 34 11 39 -5 48 -18 10 -72 115 -64 123 3 3 17 -6 32 -20 15 -14
32 -23 37 -19 6 3 17 -3 25 -15 8 -12 20 -21 25 -21 14 0 39 -26 39 -39 0 -6
12 -11 26 -11 14 0 23 -4 20 -8 -2 -4 4 -13 15 -20 12 -8 19 -8 19 -2 0 7 6 8
19 0 27 -14 64 -13 79 2 10 10 14 8 19 -10 6 -23 6 -23 23 5 16 27 16 28 -2
33 -11 3 -19 8 -19 13 1 4 1 16 1 27 0 29 13 25 56 -17 23 -24 39 -33 41 -25
3 6 11 12 19 12 8 0 15 6 15 13 1 6 3 22 4 35 1 12 -2 22 -6 22 -5 0 -9 7 -9
15 0 22 21 18 53 -9 22 -19 27 -30 22 -46 -5 -17 -12 -20 -30 -16 -20 5 -22 3
-18 -15 4 -14 1 -20 -8 -19 -29 4 -39 0 -39 -18 0 -18 -52 -78 -84 -97 -13 -8
-15 -18 -10 -42 6 -31 9 -33 48 -33 35 0 43 -4 54 -27 6 -15 12 -36 12 -47 0
-12 11 -34 25 -51 22 -26 26 -28 35 -13 10 16 50 14 50 -3 0 -10 33 -12 42 -3
5 5 -1 37 -17 92 -6 19 -4 22 19 22 16 0 26 5 26 15 0 8 5 15 10 15 6 0 10 -6
10 -14 0 -19 34 -30 66 -22 19 5 24 11 19 25 -5 17 -1 18 41 13 43 -5 50 -2
70 23 28 35 86 41 123 13 27 -21 55 -24 48 -5 -13 35 -18 61 -9 48 8 -11 11
-10 16 7 9 26 42 34 62 15 14 -14 16 -14 21 6 6 22 18 27 28 11 3 -6 17 -7 31
-4 20 5 24 2 24 -16 0 -13 8 -24 19 -27 11 -3 22 -12 25 -20 5 -12 9 -13 20
-4 10 8 21 8 40 1 35 -13 36 -13 36 5 0 8 -4 15 -10 15 -5 0 -10 9 -10 21 0
11 -5 17 -10 14 -11 -7 -31 35 -23 48 15 25 84 -41 76 -73 -5 -19 7 -27 20
-14 12 13 77 13 77 1 0 -21 -17 -40 -24 -28 -4 6 -11 11 -16 11 -13 0 0 -73
16 -86 8 -6 11 -14 7 -17 -6 -7 16 -44 42 -70 9 -9 34 -21 55 -27 22 -6 40
-14 40 -18 -1 -18 -29 -42 -49 -42 -15 0 -21 -6 -21 -21 0 -11 -4 -18 -8 -15
-5 3 -20 -6 -35 -20 -14 -13 -31 -24 -37 -24 -5 0 -10 -4 -10 -8 0 -10 -30 -9
-47 1 -15 9 -19 0 -19 -40 1 -29 -1 -32 -24 -26 -24 5 -25 5 -5 -10 11 -9 16
-17 10 -17 -5 -1 8 -7 30 -14 23 -6 40 -18 40 -26 0 -8 4 -21 8 -27 5 -7 4
-13 -1 -13 -5 0 -9 -15 -9 -32 1 -49 -11 -88 -28 -88 -19 0 -19 -24 0 -40 8
-7 15 -18 15 -24 0 -7 5 -17 11 -23 8 -8 11 -42 10 -91 -3 -109 4 -132 39
-132 16 0 32 -4 35 -10 10 -15 25 -12 25 6 0 13 5 12 31 -6 28 -20 29 -24 15
-39 -9 -10 -16 -23 -16 -30 0 -8 -8 -11 -20 -8 -22 6 -39 -11 -22 -22 5 -3 11
-15 14 -26 2 -12 10 -19 21 -17 10 2 24 -4 33 -13 8 -8 25 -15 37 -16 12 0 16
-3 10 -6 -7 -2 -13 -18 -13 -33 0 -31 -15 -48 -23 -28 -3 7 -4 3 -4 -9 1 -16
7 -21 21 -20 13 1 25 -6 31 -20 10 -24 25 -31 25 -11 0 6 7 4 18 -5 25 -23 35
-21 27 3 -5 15 -2 20 13 20 11 0 23 6 25 13 3 6 6 0 6 -15 1 -19 -4 -28 -14
-28 -8 0 -15 -7 -15 -15 0 -8 9 -15 19 -15 29 0 36 -19 15 -36 -18 -13 -17
-14 11 -12 19 2 29 8 27 16 -1 8 2 11 7 8 13 -9 8 -73 -7 -88 -13 -13 1 -38
23 -38 15 0 23 -26 17 -52 -3 -11 -14 -18 -29 -18 -22 0 -24 -3 -19 -26 4 -15
2 -32 -5 -40 -9 -11 -8 -14 5 -14 10 0 19 11 22 29 4 17 12 32 20 35 8 3 14
12 14 20 0 9 10 21 22 27 19 10 25 8 44 -17 14 -17 19 -31 13 -35 -11 -7 -4
-65 11 -89 12 -19 20 -10 22 26 1 16 8 39 16 51 7 12 12 30 10 39 -2 11 3 19
12 19 11 0 16 14 18 55 2 30 8 60 14 68 8 9 8 16 0 24 -15 15 -16 48 -2 48 6
0 10 -4 10 -10 0 -16 37 -12 55 6 13 14 14 19 3 25 -8 5 -14 3 -16 -6 -3 -12
-7 -12 -23 -2 -25 15 -24 27 1 27 15 0 20 7 20 29 0 17 5 33 10 36 6 3 10 17
10 31 0 13 5 24 10 24 16 0 26 -33 12 -38 -14 -4 -16 -42 -3 -42 5 0 13 9 16
20 3 11 10 20 15 20 4 0 10 -9 13 -20 3 -13 13 -20 29 -19 22 2 22 2 1 6 -14
3 -20 9 -16 19 3 8 1 14 -5 14 -23 0 -38 86 -18 106 12 11 16 11 28 -3 11 -15
11 -16 -4 -10 -13 5 -18 1 -18 -13 0 -12 7 -20 16 -20 27 0 54 20 54 41 0 13
4 18 13 13 10 -6 10 -4 0 7 -18 18 -16 54 3 73 14 15 14 16 0 16 -20 0 -20 10
-1 37 14 19 13 22 -2 25 -15 3 -15 4 -1 19 10 10 14 25 11 42 -3 17 -1 27 7
27 7 0 10 15 8 43 -3 42 -2 42 32 45 32 2 33 1 17 -12 -10 -8 -19 -27 -20 -42
-2 -24 2 -29 23 -32 24 -2 24 -2 5 9 -30 18 -31 19 -15 29 9 6 21 2 36 -13
l22 -21 -22 -17 -21 -17 25 -21 c14 -12 38 -28 53 -37 28 -15 28 -37 0 -32 -9
2 -18 -3 -20 -9 -3 -8 5 -13 21 -13 13 0 28 -4 31 -10 3 -5 -3 -10 -14 -10
-10 0 -21 -6 -24 -12 -2 -7 -11 2 -21 20 -19 37 -22 38 -67 15 -25 -13 -30
-18 -16 -21 13 -3 16 -10 11 -30 -4 -15 -11 -32 -16 -39 -14 -18 0 -37 17 -23
9 8 14 6 19 -6 4 -12 13 -14 32 -10 23 6 25 5 19 -16 -6 -19 -5 -21 6 -10 7 6
22 12 32 12 17 0 16 3 -7 21 -16 13 -33 18 -46 14 -11 -4 -20 -2 -20 4 0 6 14
11 30 11 19 0 30 5 30 14 0 23 28 26 52 6 l23 -19 -32 -1 c-17 0 -34 -3 -36
-8 -3 -4 9 -7 26 -7 22 0 32 -5 32 -15 0 -8 8 -24 18 -35 17 -18 16 -20 -8
-42 -20 -19 -24 -30 -20 -61 10 -73 10 -81 0 -83 -5 0 -20 19 -32 43 -12 23
-23 35 -23 26 0 -9 -3 -24 -7 -34 -4 -12 -3 -15 5 -10 11 7 17 -6 13 -27 -1
-5 8 -11 19 -14 11 -3 20 -12 20 -19 0 -19 -29 -18 -36 1 -4 8 -10 12 -15 9
-6 -3 -16 0 -24 6 -21 17 -75 -8 -75 -35 0 -11 -9 -26 -20 -33 -17 -10 -21 -8
-35 16 l-16 27 5 -32 c3 -18 1 -35 -4 -38 -13 -8 -13 -35 0 -35 6 0 10 7 10
16 0 8 4 13 9 9 6 -3 5 -18 -3 -37 -9 -19 -11 -43 -6 -64 5 -20 4 -34 -2 -34
-5 0 -6 -5 -3 -10 4 -6 0 -24 -8 -40 -15 -30 -13 -70 4 -70 5 0 9 -6 9 -14 0
-9 8 -12 24 -9 15 3 23 10 20 18 -3 8 3 22 13 32 10 10 18 24 18 31 0 10 11
17 17 10 2 -3 -59 -199 -73 -236 -5 -14 -14 -20 -21 -16 -7 4 -8 3 -4 -5 9
-14 -2 -51 -15 -51 -5 0 -9 12 -9 26 0 22 -2 25 -15 14 -17 -14 -21 -60 -5
-60 6 0 10 -15 10 -33 0 -24 -10 -45 -35 -74 -19 -23 -35 -45 -35 -51 0 -5 -9
-17 -20 -27 -12 -11 -41 -59 -66 -109 -25 -50 -48 -93 -52 -96 -4 -3 -18 -30
-32 -60 -13 -30 -39 -76 -57 -103 -18 -26 -33 -49 -33 -52 0 -3 -16 -27 -35
-54 -20 -27 -65 -98 -100 -157 -38 -63 -82 -121 -107 -143 -54 -45 -62 -55
-89 -113 -22 -44 -66 -78 -104 -78 -8 0 -26 -15 -40 -34 -14 -19 -38 -39 -53
-44 -38 -13 -122 -92 -122 -114 0 -10 -4 -18 -10 -18 -5 0 -10 -16 -10 -37 0
-28 -7 -42 -32 -64 -17 -16 -40 -31 -50 -35 -10 -3 -18 -8 -18 -12 0 -4 -30
-23 -67 -42 -38 -19 -73 -42 -80 -51 -7 -9 -32 -19 -56 -21 -23 -3 -58 -12
-77 -21 -19 -8 -51 -18 -70 -21 -19 -3 -47 -9 -62 -12 -18 -4 -28 -2 -28 5 0
6 7 11 15 11 18 0 79 30 73 35 -2 2 -32 -2 -66 -10 -79 -19 -181 -11 -275 21
-71 23 -91 23 -101 -2 -3 -8 -15 -14 -27 -14 -11 0 -19 -5 -17 -12 8 -22 61
-29 126 -16 54 10 66 10 99 -6 28 -13 50 -16 102 -11 64 6 65 6 37 -9 -15 -9
-42 -16 -58 -16 -16 0 -39 -5 -51 -12 -27 -14 -501 -19 -652 -6 -55 5 -189 13
-297 18 -110 5 -206 14 -218 20 -12 6 -65 15 -118 19 -57 5 -110 14 -129 24
-18 9 -48 17 -68 17 -20 0 -55 11 -78 24 -23 13 -58 27 -77 31 -19 4 -44 14
-56 21 -11 8 -23 11 -27 8 -8 -8 -111 23 -166 50 -180 90 -221 112 -221 118 0
11 -63 69 -85 77 -11 5 -33 11 -50 15 -29 7 -28 5 20 -39 45 -41 47 -45 25
-45 -14 0 -45 16 -69 35 -24 19 -47 35 -51 35 -3 0 -15 8 -26 18 -10 9 -49 41
-85 70 -107 84 -177 166 -224 264 -40 81 -43 93 -40 158 2 58 7 75 25 95 13
14 29 25 37 25 22 0 15 15 -16 33 -27 16 -29 16 -46 -3 -14 -16 -16 -23 -7
-32 15 -15 15 -28 2 -28 -5 0 -10 7 -10 15 0 8 -8 15 -19 15 -26 0 -67 35 -91
78 -12 21 -43 51 -73 70 -29 18 -63 50 -77 70 -14 20 -48 62 -76 92 -58 62
-78 97 -88 155 -4 22 -21 73 -37 113 -16 41 -29 82 -29 91 0 10 -9 40 -19 67
-54 137 -114 384 -125 514 -3 36 -8 80 -12 98 -6 31 7 45 21 22 3 -5 12 -7 20
-4 8 4 12 10 9 15 -9 16 15 10 28 -7 31 -39 77 -84 85 -84 5 0 8 25 7 55 -2
43 1 55 13 55 17 0 12 42 -13 100 -14 32 -19 35 -55 35 -21 0 -39 3 -39 7 0 5
-7 8 -15 8 -8 0 -15 9 -15 21 0 11 -4 18 -9 14 -6 -3 -15 4 -21 16 -11 19 -12
19 -24 3 -12 -15 -13 -15 -19 0 -4 9 -1 16 5 16 6 0 8 3 4 8 -4 4 -13 7 -19 7
-7 0 -13 8 -15 19 -3 11 0 16 7 12 13 -8 14 -4 5 19 -5 12 -9 13 -14 4 -9 -13
-43 55 -53 106 l-7 30 17 -32 c22 -44 32 -42 28 6 -3 29 1 41 12 45 18 7 9 57
-13 69 -18 11 -18 27 1 27 8 0 15 -6 15 -12 0 -10 2 -10 9 0 6 10 10 10 21 -3
10 -12 10 -15 -4 -15 -9 0 -16 -5 -16 -12 0 -18 31 -48 50 -48 18 0 35 40 22
50 -11 7 -32 83 -26 89 3 3 10 -2 15 -12 6 -9 17 -17 24 -17 8 0 15 -6 15 -13
0 -7 7 -22 15 -33 14 -18 15 -17 9 11 -3 17 -15 48 -25 71 -22 47 -23 55 -8
52 6 -2 14 3 16 10 3 6 -2 12 -11 12 -9 0 -16 5 -16 11 0 13 -38 49 -52 49
-16 0 -119 107 -117 121 3 20 -12 50 -22 44 -4 -3 -13 4 -19 15 -6 11 -8 20
-4 20 3 0 1 7 -6 15 -6 8 -9 19 -5 25 3 5 1 10 -4 10 -6 0 -11 5 -11 10 0 6 8
10 18 10 13 0 17 9 17 40 0 33 -3 40 -20 40 -17 0 -17 -2 -5 -10 14 -9 7 -15
-14 -11 -5 1 -6 -11 -3 -27 6 -30 -7 -52 -30 -52 -17 0 -17 30 0 31 8 0 8 2 1
5 -8 3 -9 18 -3 47 10 57 19 78 30 71 13 -8 47 14 54 35 3 10 17 22 30 25 13
3 33 16 44 27 12 13 37 23 65 26 44 5 46 4 62 -31 19 -39 29 -44 38 -20 4 9
13 14 21 10 9 -3 15 1 15 10 0 11 5 14 17 10 9 -4 20 -1 24 6 6 10 17 10 54 0
25 -7 61 -12 79 -12 32 0 35 -2 34 -30 -1 -30 -8 -37 -22 -22 -4 4 -17 8 -29
9 -12 1 -35 5 -50 9 -20 5 -33 1 -47 -11 -24 -22 -26 -35 -3 -35 14 0 14 -2
-2 -20 -13 -14 -14 -20 -5 -20 7 0 11 -2 8 -5 -3 -3 -16 -1 -29 4 -17 7 -19
10 -6 10 9 1 17 8 17 16 0 18 -16 20 -26 3 -12 -19 -13 -122 -2 -135 14 -17 6
-16 -36 3 -19 10 -36 25 -39 34 -5 21 -35 22 -59 1 -19 -17 -24 -41 -8 -41 6
0 10 -16 10 -35 0 -36 5 -41 29 -26 9 6 12 18 7 36 -5 20 -3 26 6 23 8 -3 12
-19 10 -46 -1 -23 3 -44 9 -48 7 -4 37 -10 67 -13 54 -6 56 -7 57 -36 0 -22
-5 -31 -20 -33 -11 -2 -25 -10 -31 -18 -10 -12 -13 -10 -18 11 -4 14 -14 25
-24 25 -9 0 -30 14 -46 30 -42 42 -66 40 -66 -6 0 -29 -3 -34 -13 -26 -10 8
-13 5 -14 -16 -1 -15 1 -21 4 -14 7 18 47 16 39 -3 -3 -8 -1 -15 4 -15 5 0 7
-7 4 -15 -4 -9 1 -18 12 -22 11 -4 25 -15 32 -25 11 -15 17 -16 28 -7 13 11
31 4 54 -21 7 -8 80 -50 87 -50 3 0 0 6 -6 14 -6 7 -9 21 -5 30 4 10 -3 23
-17 36 -20 16 -22 21 -10 29 12 7 12 13 3 24 -9 11 -8 19 7 36 11 12 17 30 14
41 -3 11 0 20 6 20 6 0 11 9 11 20 0 11 5 20 11 20 6 0 9 6 6 13 -2 6 -11 11
-21 9 -9 -2 -16 2 -16 8 0 5 6 10 14 10 8 0 16 7 20 15 3 8 13 15 22 15 11 0
15 6 11 20 -3 12 0 20 8 20 7 0 13 6 12 13 -1 37 4 49 18 43 9 -3 18 1 21 9 4
8 13 15 21 15 12 0 14 7 9 33 -5 28 -4 30 8 15 18 -25 26 -22 26 7 0 29 7 32
27 8 13 -17 14 -16 10 5 -7 31 7 28 50 -14 21 -19 55 -44 75 -55 20 -10 39
-23 43 -29 11 -18 63 -40 79 -34 23 9 20 24 -5 24 -11 0 -18 4 -14 9 8 13 -30
32 -48 25 -8 -3 -18 -1 -22 5 -3 6 -1 11 4 11 6 0 11 5 11 10 0 6 -7 10 -15
10 -8 0 -15 6 -15 14 0 7 -9 16 -21 19 -16 4 -19 11 -14 26 6 21 -5 27 -70 36
-16 2 -32 4 -35 4 -3 1 11 10 30 20 25 14 34 25 33 40 -2 13 3 21 12 21 18 0
28 -17 15 -25 -5 -3 -10 -10 -10 -16 0 -14 28 -11 33 4 3 9 8 9 21 -2 31 -26
30 0 -2 29 -20 18 -32 39 -32 54 0 14 -5 28 -10 31 -6 4 -8 11 -4 16 3 5 9 7
14 4 11 -7 49 13 68 35 11 13 12 12 7 -8 -4 -13 -1 -28 9 -37 21 -22 39 -19
33 5 -3 13 0 20 9 20 8 0 14 -3 15 -7 9 -62 2 -91 -16 -63 -4 6 -11 8 -16 4
-5 -3 -7 -9 -4 -14 3 -5 0 -12 -6 -16 -15 -9 -28 14 -21 39 5 20 5 20 -20 1
-19 -14 -24 -23 -17 -35 9 -18 62 -32 67 -18 2 5 11 9 19 9 14 0 14 -2 -1 -18
-9 -11 -15 -30 -14 -43 3 -20 -1 -24 -23 -24 -18 1 -25 -4 -22 -12 3 -7 -2
-13 -11 -13 -19 0 -20 -1 -2 -34 l14 -27 6 26 c7 28 41 34 77 14 15 -7 24 -7
35 1 7 7 23 10 35 7 11 -3 28 -3 36 0 21 8 -4 23 -39 23 -16 0 -28 5 -28 10 0
6 -11 16 -25 22 -14 6 -25 17 -25 24 0 17 20 29 29 18 11 -17 51 -34 73 -33
14 0 17 3 9 6 -25 10 -48 39 -46 61 3 34 15 39 16 6 0 -16 3 -23 6 -16 2 6 11
12 19 12 8 0 11 -6 7 -16 -5 -14 -1 -15 25 -9 25 5 32 3 32 -8 0 -8 -10 -18
-22 -22 -16 -4 -19 -8 -10 -12 8 -3 24 0 37 7 19 10 27 9 49 -5 25 -17 26 -17
27 6 1 17 3 19 6 7 2 -10 11 -18 18 -18 11 0 13 8 8 31 -6 29 -4 31 18 24 24
-8 24 -7 5 13 -10 12 -16 28 -13 37 8 19 43 20 51 0 3 -8 15 -15 26 -15 11 0
23 -7 27 -16 5 -13 10 -9 23 16 17 33 18 33 29 12 6 -12 8 -22 4 -22 -4 0 -2
-5 5 -12 15 -15 16 -48 2 -48 -5 0 -10 5 -10 10 0 6 -4 10 -9 10 -5 0 -8 -11
-7 -23 1 -17 6 -23 19 -19 20 5 20 2 7 -34 -6 -15 -8 -35 -5 -45 5 -15 10 -16
30 -7 13 6 21 16 18 24 -2 7 -1 19 3 26 6 9 10 4 15 -17 l6 -30 10 25 c16 38
34 48 76 45 28 -3 37 0 37 12 0 11 8 13 33 8 l32 -6 -32 17 c-34 17 -47 42
-15 29 46 -19 54 -19 48 3 -5 15 -2 22 14 27 11 3 20 11 20 16 0 5 -3 8 -7 7
-5 -2 -9 2 -10 7 -2 6 1 10 7 10 5 0 15 6 22 13 11 11 10 13 -7 10 -16 -2 -19
2 -17 21 2 21 -1 22 -25 16 -29 -7 -43 -21 -43 -42 0 -9 -17 -13 -49 -13 -27
0 -51 -5 -53 -11 -2 -6 -13 -3 -28 9 -32 25 -50 18 -50 -19 0 -19 -4 -28 -11
-24 -6 4 -8 14 -5 22 3 8 3 20 -1 26 -16 25 -9 49 18 63 34 17 129 25 147 11
8 -7 12 -5 12 6 0 8 -7 17 -15 21 -23 8 -18 25 6 19 12 -3 24 -1 28 6 10 16
43 2 37 -16 -4 -8 4 -17 18 -23 36 -13 76 -55 76 -79 0 -18 5 -21 32 -19 44 4
50 -25 8 -42 -23 -10 -30 -19 -30 -41 0 -33 -27 -54 -83 -64 -25 -5 -42 -3
-53 6 -23 19 -50 -11 -35 -39 14 -27 80 -50 91 -32 5 7 6 18 4 25 -7 17 20 37
40 29 23 -9 20 -24 -5 -24 -16 0 -19 -3 -12 -12 19 -24 22 -56 6 -62 -12 -5
-13 -9 -4 -20 10 -11 8 -16 -9 -21 -27 -9 -21 -15 25 -25 30 -7 37 -5 43 8 9
24 35 43 43 30 4 -7 14 -6 28 1 24 13 17 25 -31 50 -33 17 -34 22 -8 39 17 10
21 10 26 -3 6 -14 8 -14 24 0 10 9 30 18 46 21 16 3 48 18 71 34 48 35 66 37
91 12 18 -18 19 -18 29 4 8 18 7 24 -3 28 -8 3 -14 1 -14 -4 0 -6 -5 -10 -11
-10 -6 0 -10 12 -9 28 3 39 -10 74 -26 68 -8 -3 -15 6 -19 25 -8 35 2 52 16
27 9 -16 49 -14 49 3 0 5 9 9 20 9 11 0 20 -4 20 -10 0 -5 5 -10 10 -10 14 0
12 20 -5 54 -24 45 -15 50 26 12 24 -22 35 -25 102 -23 50 1 80 -3 91 -12 14
-12 16 -11 16 7 0 26 31 38 46 18 14 -20 24 -10 25 23 1 26 1 26 9 -3 6 -17 5
-36 0 -46 -7 -13 -5 -22 5 -30 8 -7 15 -21 15 -31 0 -11 6 -19 13 -19 21 0 40
17 32 29 -4 7 -2 18 4 25 9 10 5 16 -19 26 -34 14 -31 30 6 30 28 0 31 12 8
35 -9 8 -13 22 -10 31 4 10 2 13 -6 8 -7 -5 -9 0 -6 14 5 16 1 22 -10 23 -15
1 -15 2 1 6 20 5 22 14 5 31 -24 24 18 13 44 -12z m528 14 c0 -12 -8 -12 -35
0 -18 8 -17 9 8 9 15 1 27 -3 27 -9z m120 0 c0 -5 -4 -10 -10 -10 -5 0 -10 5
-10 10 0 6 5 10 10 10 6 0 10 -4 10 -10z m-1223 -22 c-3 -8 -6 -5 -6 6 -1 11
2 17 5 13 3 -3 4 -12 1 -19z m1144 -4 c12 -14 11 -16 -5 -13 -11 2 -21 10 -24
17 -5 17 13 15 29 -4z m1940 6 c20 -11 27 -40 9 -40 -14 0 -50 37 -42 44 7 8
10 8 33 -4z m-2309 -20 c7 -11 19 -20 27 -20 12 0 13 -2 2 -12 -11 -11 -14
-10 -18 1 -3 7 -14 22 -24 32 -11 11 -15 19 -9 19 5 0 15 -9 22 -20z m102 9
c-5 -8 1 -10 18 -6 22 6 24 4 20 -23 -4 -29 -5 -29 -27 -12 -13 9 -28 25 -34
35 -9 14 -8 17 10 17 12 0 18 -4 13 -11z m-1534 -9 c0 -5 -2 -10 -4 -10 -3 0
-8 5 -11 10 -3 6 -1 10 4 10 6 0 11 -4 11 -10z m1640 -32 c0 -5 -5 -8 -11 -8
-6 0 -8 -9 -3 -22 6 -21 6 -21 -11 -5 -9 10 -14 24 -11 32 3 8 1 15 -5 15 -6
0 -7 4 -4 10 6 10 45 -9 45 -22z m-2636 5 c6 -15 -8 -32 -26 -33 -4 0 -11 -12
-14 -26 -4 -17 -11 -23 -21 -20 -8 3 -19 6 -25 6 -6 0 -8 8 -5 19 3 14 0 17
-14 14 -11 -3 -19 0 -19 6 0 6 5 11 10 11 6 0 10 6 10 14 0 10 13 16 38 19 20
2 42 4 48 5 7 1 15 -6 18 -15z m1553 -5 c-3 -8 -6 -5 -6 6 -1 11 2 17 5 13 3
-3 4 -12 1 -19z m353 13 c0 -5 -9 -11 -19 -14 -14 -3 -18 -1 -14 9 6 15 33 19
33 5z m993 -11 c3 -11 1 -20 -4 -20 -5 0 -9 7 -9 15 0 8 -6 12 -14 9 -8 -3
-17 -1 -21 5 -4 7 3 11 18 11 16 0 26 -7 30 -20z m1893 -17 c-4 -4 -11 -1 -16
7 -16 25 -11 35 7 17 9 -9 13 -20 9 -24z m-4692 21 c26 -10 18 -24 -12 -24
-15 0 -33 -5 -40 -12 -9 -9 -12 -8 -12 5 0 15 11 23 47 36 1 1 8 -2 17 -5z
m846 -23 c0 -11 6 -21 13 -24 6 -2 -3 -7 -20 -11 -28 -7 -31 -10 -23 -26 14
-26 13 -30 -10 -30 -11 0 -27 -11 -36 -25 -20 -31 -54 -28 -71 6 -12 22 -11
25 12 33 14 6 25 16 25 23 0 7 7 13 15 13 9 0 18 7 21 15 4 8 13 15 20 15 8 0
17 7 20 15 9 22 34 18 34 -4z m882 -1 c-21 -20 -42 -26 -42 -14 0 11 34 33 49
34 10 0 8 -6 -7 -20z m663 0 c3 -5 2 -10 -4 -10 -5 0 -13 5 -16 10 -3 6 -2 10
4 10 5 0 13 -4 16 -10z m-2135 -10 c0 -5 -4 -10 -10 -10 -5 0 -10 5 -10 10 0
6 5 10 10 10 6 0 10 -4 10 -10z m1760 -4 c0 -9 -30 -14 -35 -6 -4 6 3 10 14
10 12 0 21 -2 21 -4z m1203 -21 c-7 -19 -33 -20 -33 -1 0 15 20 26 32 19 4 -2
5 -10 1 -18z m-2876 -25 c0 -29 -1 -29 -15 -9 -12 18 -13 23 -1 30 8 5 14 9
15 9 0 0 1 -13 1 -30z m2218 20 c3 -5 1 -10 -4 -10 -6 0 -11 5 -11 10 0 6 2
10 4 10 3 0 8 -4 11 -10z m154 1 c8 -5 9 -11 3 -15 -13 -8 -42 3 -42 15 0 11
21 11 39 0z m-2229 -15 c0 -16 -18 -31 -27 -22 -8 8 5 36 17 36 5 0 10 -6 10
-14z m2555 4 c-3 -5 -11 -10 -16 -10 -6 0 -7 5 -4 10 3 6 11 10 16 10 6 0 7
-4 4 -10z m-645 -20 c0 -5 -2 -10 -4 -10 -3 0 -8 5 -11 10 -3 6 -1 10 4 10 6
0 11 -4 11 -10z m660 -10 c0 -5 -8 -14 -17 -19 -17 -10 -17 -12 0 -25 9 -7 17
-23 17 -36 0 -20 -3 -19 -30 15 -36 45 -36 47 -7 61 29 15 37 16 37 4z m-2086
-27 c-8 -35 -7 -33 -21 -25 -16 10 -5 52 13 52 11 0 13 -7 8 -27z m-133 3 c-7
-8 -21 -12 -34 -8 -20 6 -20 7 8 13 17 4 32 7 34 8 2 0 -2 -5 -8 -13z m1641 5
c4 -1 5 -8 1 -17 -4 -10 -1 -15 8 -13 17 4 81 -35 73 -44 -3 -3 -12 -3 -20 0
-8 3 -14 -1 -14 -8 -1 -10 -5 -8 -15 5 -8 10 -24 19 -36 20 -12 0 -33 16 -47
34 l-25 32 34 -4 c19 -3 37 -5 41 -5z m608 -1 c-20 -13 -33 -13 -25 0 3 6 14
10 23 10 15 0 15 -2 2 -10z m1608 -20 c17 -27 10 -25 -19 6 -13 14 -17 23 -9
19 9 -3 21 -14 28 -25z m-4651 14 c-3 -3 -12 -4 -19 -1 -8 3 -5 6 6 6 11 1 17
-2 13 -5z m1523 -16 c0 -19 -2 -20 -10 -8 -13 19 -13 30 0 30 6 0 10 -10 10
-22z m3197 16 c-3 -3 -12 -4 -19 -1 -8 3 -5 6 6 6 11 1 17 -2 13 -5z m-3155
-44 c3 -32 0 -40 -13 -40 -15 0 -16 5 -7 40 6 22 12 40 13 40 2 0 5 -18 7 -40z
m-1362 26 c0 -3 -4 -8 -10 -11 -5 -3 -10 -1 -10 4 0 6 5 11 10 11 6 0 10 -2
10 -4z m438 -29 c2 -20 -1 -27 -13 -27 -12 0 -15 6 -10 21 5 15 4 19 -4 15 -6
-4 -11 -1 -11 8 0 26 35 11 38 -17z m1412 13 c0 -5 -5 -10 -11 -10 -5 0 -7 5
-4 10 3 6 8 10 11 10 2 0 4 -4 4 -10z m-1000 -14 c0 -16 -18 -31 -27 -22 -8 8
5 36 17 36 5 0 10 -6 10 -14z m-739 -26 c5 0 9 -5 9 -11 0 -8 -5 -8 -15 1 -8
7 -14 20 -14 29 1 13 2 13 6 -1 2 -10 9 -18 14 -18z m4226 8 c-3 -8 -6 -5 -6
6 -1 11 2 17 5 13 3 -3 4 -12 1 -19z m58 -16 c-8 -8 -25 10 -25 26 0 13 2 13
14 -4 8 -10 13 -21 11 -22z m-3818 -9 c-3 -10 -5 -4 -5 12 0 17 2 24 5 18 2
-7 2 -21 0 -30z m-892 5 c12 -33 13 -68 4 -62 -5 3 -9 11 -9 18 0 8 -7 19 -15
26 -8 7 -15 19 -15 26 0 23 27 16 35 -8z m2565 12 c0 -5 -7 -7 -15 -4 -8 4
-15 8 -15 10 0 2 7 4 15 4 8 0 15 -4 15 -10z m241 -3 c-1 -4 -3 -7 -6 -7 -40
0 -40 0 -25 10 16 10 32 9 31 -3z m1457 -11 c16 -18 16 -18 -8 -12 -14 3 -31
6 -37 6 -7 0 -13 6 -13 13 0 19 37 14 58 -7z m-4008 -12 c0 -16 -32 -35 -48
-28 -9 4 -25 6 -34 5 -10 -1 -18 3 -18 8 0 6 14 11 30 11 20 0 30 5 30 15 0
13 4 14 20 5 11 -6 20 -13 20 -16z m1020 12 c0 -8 -4 -18 -10 -21 -5 -3 -10 3
-10 14 0 12 5 21 10 21 6 0 10 -6 10 -14z m3275 4 c3 -5 -1 -10 -9 -10 -9 0
-16 5 -16 10 0 6 4 10 9 10 6 0 13 -4 16 -10z m-1685 -10 c0 -5 -5 -10 -11
-10 -5 0 -7 5 -4 10 3 6 8 10 11 10 2 0 4 -4 4 -10z m-1145 -10 c8 -13 -5 -13
-25 0 -13 8 -13 10 2 10 9 0 20 -4 23 -10z m2730 0 c3 -5 -1 -10 -9 -10 -8 0
-18 5 -21 10 -3 6 1 10 9 10 8 0 18 -4 21 -10z m-359 -27 c-10 -10 -19 5 -10
18 6 11 8 11 12 0 2 -7 1 -15 -2 -18z m-2825 -8 c0 -13 -41 -19 -41 -7 0 11
20 22 33 18 5 -1 8 -6 8 -11z m1579 6 c0 -6 -4 -13 -10 -16 -5 -3 -10 1 -10 9
0 9 5 16 10 16 6 0 10 -4 10 -9z m1547 -17 c-3 -4 0 -13 8 -21 19 -19 19 -26
-4 -52 l-19 -22 -31 31 c-30 30 -40 47 -23 36 5 -3 21 4 38 15 29 19 43 25 31
13z m-1017 -14 c0 -5 -7 -10 -15 -10 -8 0 -15 5 -15 10 0 6 7 10 15 10 8 0 15
-4 15 -10z m-3150 -4 c0 -3 -4 -8 -10 -11 -5 -3 -10 -1 -10 4 0 6 5 11 10 11
6 0 10 -2 10 -4z m11633 -25 c47 -20 64 -50 46 -82 -16 -32 -118 -3 -133 38
-7 17 18 63 33 63 5 0 29 -9 54 -19z m-10736 -28 c-3 -10 -5 -4 -5 12 0 17 2
24 5 18 2 -7 2 -21 0 -30z m2293 6 c0 -11 -4 -17 -10 -14 -5 3 -10 13 -10 21
0 8 5 14 10 14 6 0 10 -9 10 -21z m-4705 -15 c72 -30 99 -133 53 -200 -69
-100 -248 -17 -248 114 0 36 29 74 72 95 35 18 66 15 123 -9z m5730 -24 c3 -5
1 -10 -4 -10 -6 0 -11 5 -11 10 0 6 2 10 4 10 3 0 8 -4 11 -10z m-92 -22 c5
-17 -3 -38 -14 -38 -5 0 -9 7 -9 15 0 8 -7 15 -16 15 -8 0 -12 5 -9 10 9 14
42 12 48 -2z m143 -18 c0 -12 -4 -16 -9 -11 -5 5 -6 14 -3 20 10 15 12 14 12
-9z m592 -20 c19 -18 30 -50 18 -50 -10 0 -56 48 -56 59 0 17 14 13 38 -9z
m-618 -4 c0 -13 -20 -26 -41 -26 -16 0 -9 28 9 33 29 8 32 7 32 -7z m-4253
-26 c13 0 13 -3 3 -15 -14 -17 -29 -19 -49 -6 -17 11 -4 34 16 27 8 -3 22 -6
30 -6z m6757 -10 c67 -33 89 -79 71 -145 -11 -43 -44 -72 -96 -86 -38 -10 -50
-10 -82 6 -87 41 -107 158 -36 217 40 34 86 36 143 8z m-1904 0 c0 -5 -4 -10
-10 -10 -5 0 -10 5 -10 10 0 6 5 10 10 10 6 0 10 -4 10 -10z m-654 -15 c-16
-17 -36 -20 -36 -6 0 10 17 19 38 20 10 1 10 -3 -2 -14z m69 5 c3 -5 1 -10 -4
-10 -6 0 -11 5 -11 10 0 6 2 10 4 10 3 0 8 -4 11 -10z m642 -22 c-3 -7 -5 -2
-5 12 0 14 2 19 5 13 2 -7 2 -19 0 -25z m-4992 -8 c3 -5 -1 -10 -10 -10 -9 0
-13 5 -10 10 3 6 8 10 10 10 2 0 7 -4 10 -10z m4321 -4 c10 -8 16 -18 12 -22
-4 -4 -14 -1 -22 5 -8 7 -20 10 -26 6 -11 -7 -14 8 -3 18 9 10 17 9 39 -7z
m704 -11 c0 -9 -9 -15 -22 -15 -22 1 -23 1 -4 15 25 19 26 19 26 0z m7225 -36
l46 -21 -4 -51 c-3 -41 -7 -51 -20 -49 -9 1 -22 -6 -29 -18 -7 -11 -21 -20
-30 -20 -16 0 -23 -11 -19 -32 2 -16 -36 -7 -69 16 -28 19 -39 36 -53 86 -18
62 -18 63 4 86 36 39 91 40 174 3z m-7897 -25 c-10 -10 -28 6 -28 24 0 15 1
15 17 -1 9 -9 14 -19 11 -23z m717 26 c8 -13 -5 -13 -25 0 -13 8 -13 10 2 10
9 0 20 -4 23 -10z m2493 -37 c17 -13 32 -29 32 -35 0 -6 7 -19 16 -29 23 -25
23 -109 0 -143 -36 -56 -115 -81 -179 -57 -47 18 -95 77 -102 125 -21 137 121
222 233 139z m-1686 -31 c5 -16 2 -17 -17 -8 -24 11 -24 26 -1 26 8 0 16 -8
18 -18z m-6242 -83 c0 -22 -5 -39 -10 -39 -19 0 -31 55 -21 99 1 2 8 -2 16 -9
9 -7 15 -29 15 -51z m4477 -11 c-3 -8 -6 -5 -6 6 -1 11 2 17 5 13 3 -3 4 -12
1 -19z m926 -25 c11 4 14 2 11 -7 -3 -8 -1 -17 5 -21 6 -3 11 -23 12 -43 0
-20 3 -31 6 -24 9 22 20 13 20 -18 0 -16 -4 -30 -9 -30 -4 0 -8 7 -8 16 0 8
-4 13 -9 10 -5 -3 -21 10 -35 28 -15 21 -22 37 -16 41 16 10 12 21 -12 33 -13
6 -18 11 -11 11 7 1 10 8 6 19 -5 14 -3 14 9 -2 9 -12 22 -17 31 -13z m-925
-3 c15 -1 15 -2 -1 -11 -21 -12 -47 -5 -47 12 0 6 7 8 16 5 9 -3 23 -6 32 -6z
m1187 -60 c3 -5 2 -10 -4 -10 -5 0 -13 5 -16 10 -3 6 -2 10 4 10 5 0 13 -4 16
-10z m-312 -17 c-7 -2 -21 -2 -30 0 -10 3 -4 5 12 5 17 0 24 -2 18 -5z m-5239
-65 c6 -4 7 -8 1 -8 -23 0 -38 18 -30 36 8 18 8 18 13 -1 2 -11 9 -23 16 -27z
m5236 -22 c0 -11 -19 -15 -25 -6 -3 5 1 10 9 10 9 0 16 -2 16 -4z m3975 -6 c5
-8 11 -7 20 0 18 15 35 5 35 -20 0 -10 5 -20 12 -22 19 -7 1 -37 -26 -44 -32
-8 -94 32 -77 49 6 6 11 19 11 29 0 20 15 24 25 8z m-9276 -27 c12 -14 24 -37
27 -50 4 -12 10 -23 15 -23 12 0 6 -59 -7 -64 -11 -4 -40 49 -46 84 -2 8 -6
17 -9 20 -11 9 -19 60 -10 60 5 0 19 -12 30 -27z m4639 -3 c3 -21 2 -22 -12
-11 -19 16 -21 44 -3 39 6 -3 14 -15 15 -28z m768 -17 c-8 -8 -12 -3 -21 27
l-7 25 17 -23 c9 -13 14 -26 11 -29z m8449 27 c4 -6 10 -8 14 -6 9 6 69 -57
89 -91 15 -28 16 -80 1 -121 -12 -35 -76 -72 -124 -72 -40 0 -109 43 -134 84
-42 68 -20 169 43 200 35 18 102 21 111 6z m-8565 -52 c-12 -5 -12 -7 3 -7 9
-1 17 -7 17 -15 0 -11 -7 -12 -27 -7 -27 7 -45 31 -23 31 10 0 10 3 0 15 -21
26 0 38 23 13 19 -19 20 -24 7 -30z m-18 -50 c-9 -9 -15 -9 -24 0 -9 9 -7 12
12 12 19 0 21 -3 12 -12z m-684 -30 c22 -22 29 -44 14 -50 -5 -1 -12 -18 -15
-36 -4 -19 -3 -31 2 -27 6 3 9 -8 9 -24 -1 -26 -3 -28 -23 -21 -13 5 -32 6
-44 3 -12 -3 -21 -1 -21 6 0 6 -10 11 -22 11 -13 0 -18 4 -13 8 13 9 17 82 4
82 -13 0 -11 57 2 65 6 4 19 -2 30 -14 11 -12 24 -21 28 -21 5 0 11 -10 15
-22 4 -17 8 -20 17 -11 15 15 -27 74 -47 66 -8 -3 -14 0 -14 7 0 18 50 3 78
-22z m-4491 6 c-3 -3 -12 -4 -19 -1 -8 3 -5 6 6 6 11 1 17 -2 13 -5z m10680
-11 c19 -9 46 -33 59 -53 33 -50 33 -151 0 -184 -12 -12 -20 -24 -18 -28 6
-19 -84 -6 -132 18 -75 37 -99 67 -104 128 -4 45 -1 56 24 85 45 53 105 66
171 34z m-5302 -36 c-10 -8 -15 -19 -11 -25 4 -7 1 -12 -8 -12 -9 0 -16 7 -16
15 0 8 4 15 9 15 5 0 13 9 16 21 5 15 10 18 18 10 8 -8 6 -15 -8 -24z m-75
-47 c0 -5 -4 -10 -9 -10 -5 0 -7 -10 -4 -22 5 -22 5 -22 -9 -4 -12 15 -13 23
-4 32 13 16 26 18 26 4z m30 -30 c12 -8 11 -10 -7 -10 -13 0 -23 5 -23 10 0
13 11 13 30 0z m60 2 c0 -13 -12 -22 -22 -16 -10 6 -1 24 13 24 5 0 9 -4 9 -8z
m124 -7 c3 -8 1 -15 -4 -15 -6 0 -10 7 -10 15 0 8 2 15 4 15 2 0 6 -7 10 -15z
m-164 -25 c0 -5 -5 -10 -11 -10 -5 0 -7 5 -4 10 3 6 8 10 11 10 2 0 4 -4 4
-10z m6629 -9 c8 -5 19 -25 26 -45 7 -20 9 -33 4 -30 -5 3 -25 -3 -45 -12 -30
-15 -37 -15 -45 -3 -8 12 -10 12 -18 0 -7 -11 -13 -11 -32 3 -13 9 -18 16 -11
16 6 0 12 8 12 18 0 9 9 23 20 30 12 7 18 17 15 22 -8 12 55 13 74 1z m-7396
-41 c3 -11 1 -18 -4 -14 -5 3 -9 12 -9 20 0 20 7 17 13 -6z m881 5 c-4 -8 -8
-15 -10 -15 -2 0 -4 7 -4 15 0 8 4 15 10 15 5 0 7 -7 4 -15z m2862 -20 c-6
-18 5 -20 21 -4 9 9 12 7 12 -7 1 -10 3 -36 5 -56 3 -21 1 -38 -4 -38 -6 0
-10 -7 -10 -15 0 -8 -7 -15 -15 -15 -8 0 -15 5 -15 10 0 6 -7 10 -15 10 -8 0
-15 5 -15 10 0 6 -6 10 -14 10 -7 0 -16 12 -19 28 -5 22 0 32 26 55 35 30 52
35 43 12z m-3101 -15 c3 -5 -1 -10 -10 -10 -9 0 -13 5 -10 10 3 6 8 10 10 10
2 0 7 -4 10 -10z m210 0 c-3 -5 -13 -10 -21 -10 -8 0 -12 -5 -9 -11 4 -6 -2
-5 -14 3 -31 19 -26 28 15 28 21 0 33 -4 29 -10z m41 -15 c-8 -8 -17 -15 -20
-15 -3 0 -6 7 -6 15 0 9 9 15 21 15 18 0 19 -2 5 -15z m-259 -27 c-3 -8 -6 -5
-6 6 -1 11 2 17 5 13 3 -3 4 -12 1 -19z m6673 -31 c0 -6 -11 0 -25 13 -14 13
-25 28 -25 33 0 6 11 0 25 -13 14 -13 25 -28 25 -33z m-7290 -1 c0 -20 -28
-46 -48 -45 -14 0 -13 3 6 16 12 8 22 22 22 29 0 8 5 14 10 14 6 0 10 -6 10
-14z m834 -2 c5 -12 2 -15 -10 -10 -8 3 -18 6 -20 6 -3 0 -2 5 1 10 9 15 22
12 29 -6z m-5364 -115 c0 -27 -4 -49 -10 -49 -5 0 -10 12 -10 28 0 15 -3 52
-6 82 l-5 55 15 -34 c9 -18 16 -55 16 -82z m4660 107 c0 -2 -7 -6 -15 -10 -8
-3 -15 -1 -15 4 0 6 7 10 15 10 8 0 15 -2 15 -4z m6030 -6 c0 -5 -7 -10 -15
-10 -8 0 -15 5 -15 10 0 6 7 10 15 10 8 0 15 -4 15 -10z m-6293 -6 c-3 -3 -12
-4 -19 -1 -8 3 -5 6 6 6 11 1 17 -2 13 -5z m163 -9 c-7 -8 -16 -12 -21 -9 -13
8 -1 24 18 24 13 0 13 -3 3 -15z m-44 -44 c-4 -6 -17 -11 -28 -11 -21 0 -21 0
-2 19 19 19 42 12 30 -8z m867 22 c-7 -2 -19 -2 -25 0 -7 3 -2 5 12 5 14 0 19
-2 13 -5z m-783 -23 c13 -8 13 -10 -2 -10 -9 0 -20 5 -23 10 -8 13 5 13 25 0z
m-39 -36 c5 -15 7 -30 3 -33 -7 -7 -34 28 -34 46 0 23 20 14 31 -13z m346 20
c-3 -3 -12 -4 -19 -1 -8 3 -5 6 6 6 11 1 17 -2 13 -5z m-237 -19 c0 -16 -20
-42 -20 -27 0 6 -11 12 -25 12 -23 0 -32 10 -20 22 10 9 65 3 65 -7z m-185
-65 c3 -5 1 -10 -4 -10 -6 0 -11 5 -11 10 0 6 2 10 4 10 3 0 8 -4 11 -10z m45
6 c0 -2 -7 -6 -15 -10 -8 -3 -15 -1 -15 4 0 6 7 10 15 10 8 0 15 -2 15 -4z
m177 -31 c-12 -25 -27 -33 -27 -15 0 12 22 39 32 40 3 0 1 -11 -5 -25z m-47 6
c0 -12 -28 -22 -34 -12 -3 5 -3 11 1 15 9 9 33 7 33 -3z m-22 -49 c2 -7 -6
-12 -17 -12 -21 0 -27 11 -14 24 9 9 26 2 31 -12z m608 -97 c-3 -9 -10 -13
-16 -10 -5 3 -10 0 -10 -7 0 -9 -3 -9 -10 2 -14 21 -12 30 4 24 8 -3 17 0 21
6 10 16 19 4 11 -15z m5738 -48 c10 -38 7 -55 -16 -80 -19 -20 -28 -22 -55
-15 -35 9 -79 66 -63 82 6 6 10 16 10 24 0 8 8 20 17 27 25 18 99 -8 107 -38z
m-924 17 c22 -9 40 -22 40 -30 0 -8 4 -14 10 -14 14 0 40 -55 40 -85 0 -62
-70 -135 -129 -135 -81 0 -160 75 -163 155 -2 44 0 50 37 81 56 47 100 54 165
28z m-4905 -13 c-3 -5 2 -16 10 -25 8 -8 11 -17 6 -21 -5 -3 -17 5 -25 17 -20
28 -20 38 0 38 8 0 13 -4 9 -9z m-45 -11 c0 -5 -4 -10 -10 -10 -5 0 -10 5 -10
10 0 6 5 10 10 10 6 0 10 -4 10 -10z m101 -43 c-16 -16 -26 0 -10 19 9 11 15
12 17 4 2 -6 -1 -17 -7 -23z m-86 6 c36 -17 43 -27 25 -38 -5 -3 -10 1 -10 10
0 9 -4 13 -10 10 -5 -3 -10 -15 -10 -26 0 -12 -7 -19 -20 -19 -22 0 -27 16 -7
23 10 3 10 9 0 26 -22 37 -19 38 32 14z m55 -80 c0 -10 -4 -24 -9 -32 -12 -19
-24 3 -16 29 8 25 25 26 25 3z m-55 -12 c3 -5 1 -12 -5 -16 -5 -3 -10 1 -10 9
0 18 6 21 15 7z m3544 -200 c42 -22 91 -89 91 -123 -2 -69 -89 -147 -151 -134
-30 6 -39 -7 -16 -21 19 -12 47 -80 47 -115 0 -40 -42 -96 -86 -114 -73 -31
-158 -6 -203 60 -49 71 -49 144 -1 195 32 33 76 46 127 36 34 -6 35 -5 29 17
-26 83 -27 107 -10 144 20 42 66 74 107 74 15 0 45 -9 66 -19z m-1509 -412
c71 -40 86 -102 41 -175 -14 -24 -30 -33 -74 -44 -50 -11 -59 -11 -81 4 -37
23 -53 54 -59 109 -4 45 -2 51 33 88 44 46 81 51 140 18z m2668 -176 c38 -28
72 -81 72 -113 0 -38 -39 -91 -87 -118 -38 -21 -42 -21 -84 -7 -75 27 -109 73
-109 148 0 40 5 49 41 82 39 35 45 37 91 33 27 -3 62 -14 76 -25z m-2848 -135
c42 -48 50 -58 50 -67 0 -10 -86 -25 -99 -17 -5 3 -14 -1 -21 -9 -11 -14 -15
-12 -28 16 -12 24 -13 35 -4 50 7 10 12 26 12 34 0 25 66 19 90 -7z m5262 -47
c19 -13 44 -41 56 -62 37 -63 28 -122 -27 -177 -17 -17 -31 -35 -31 -40 0 -6
15 -20 33 -31 47 -29 60 -62 46 -111 -14 -45 -61 -98 -95 -106 -37 -9 -74 4
-111 41 -28 28 -33 40 -33 82 0 32 7 56 20 73 11 14 20 30 19 35 0 6 -26 25
-58 43 -65 38 -91 73 -91 127 0 39 23 92 49 113 59 48 162 54 223 13z m-3162
-190 c41 -21 80 -74 80 -108 0 -49 -30 -92 -77 -113 -54 -24 -75 -25 -111 -6
-77 40 -103 122 -60 186 41 61 103 76 168 41z m809 -16 c77 -27 127 -113 101
-175 -25 -61 -103 -101 -165 -86 -14 4 -43 22 -64 42 -70 63 -62 155 18 210
42 28 54 29 110 9z m-9478 -102 c63 -52 69 -60 69 -94 0 -20 -9 -57 -20 -83
-21 -45 -22 -46 -68 -46 -66 1 -110 26 -139 80 -14 25 -32 51 -40 57 -14 11
-15 18 -3 52 7 21 9 44 6 50 -9 15 49 40 92 41 26 0 49 -12 103 -57z m6445
-127 c13 -14 20 -46 9 -46 -9 0 -50 25 -57 35 -7 9 9 25 25 25 5 0 15 -6 23
-14z m2384 -146 c5 0 25 -14 45 -31 36 -32 44 -68 29 -127 -8 -28 -81 -72
-120 -72 -46 0 -91 34 -103 77 -15 52 -14 73 4 73 8 0 15 8 15 18 0 36 67 77
108 66 8 -2 18 -4 22 -4z m-432 -48 c19 -4 22 -9 17 -29 -4 -16 -2 -22 5 -18
5 3 10 2 10 -2 0 -5 -9 -14 -19 -20 -15 -10 -26 -8 -52 5 -32 16 -33 19 -24
50 7 24 13 31 25 26 8 -4 25 -9 38 -12z m-10017 -89 c16 -10 41 -35 56 -56 22
-32 25 -42 15 -55 -7 -9 -21 -30 -32 -47 l-20 -30 21 -3 c14 -2 19 -9 15 -19
-3 -8 -6 -19 -6 -24 0 -20 -93 -9 -137 16 -48 29 -70 63 -73 115 -3 53 -2 56
26 89 21 25 33 31 66 31 22 0 53 -8 69 -17z m12780 -16 c42 -28 65 -67 54 -93
-4 -10 -7 -26 -6 -34 2 -23 -37 -54 -86 -70 -61 -19 -106 4 -126 64 -19 54
-12 88 23 126 36 38 91 41 141 7z m-10539 -24 c23 -10 37 -22 34 -30 -3 -7 7
-19 23 -27 32 -17 101 -98 101 -119 0 -8 -11 -26 -25 -41 -14 -16 -32 -38 -41
-51 -11 -16 -27 -24 -62 -28 -52 -6 -73 2 -116 45 -17 15 -35 28 -42 28 -23 0
-58 36 -51 54 5 13 11 15 26 7 26 -15 45 9 36 47 -4 22 -2 31 10 36 13 4 14
10 5 26 -7 14 -8 26 0 39 18 34 47 38 102 14z m11718 -58 c6 -8 15 -13 18 -12
4 1 9 -2 12 -8 3 -5 -4 -11 -15 -14 -11 -2 -23 -8 -27 -15 -5 -6 -8 -2 -8 11
0 12 -4 25 -10 28 -5 3 -10 10 -10 16 0 14 26 11 40 -6z m-8480 -26 c59 -36
73 -56 67 -97 -5 -27 -19 -49 -52 -81 -41 -38 -51 -43 -80 -38 -82 13 -116 71
-95 164 8 40 18 57 33 63 38 15 91 11 127 -11z m6939 -233 c8 -6 27 -29 43
-50 52 -72 29 -150 -56 -190 -38 -18 -68 -15 -126 14 -59 30 -83 63 -88 124
-6 78 31 123 113 139 21 4 90 -19 114 -37z m-3629 9 c27 -24 41 -91 26 -120
-21 -41 -60 -65 -104 -65 -50 0 -72 8 -72 26 0 8 -6 25 -14 37 -29 45 -8 102
49 136 26 15 92 7 115 -14z m2250 -94 c17 -15 30 -35 30 -44 0 -22 -32 -87
-42 -87 -4 0 -8 -6 -8 -13 0 -8 -11 -19 -25 -25 -32 -15 -89 -16 -80 -2 3 6
-1 7 -9 4 -10 -4 -18 1 -22 12 -3 11 -9 28 -14 39 -11 27 -11 65 0 65 5 0 11
12 15 28 12 56 106 71 155 23z m1854 -7 c9 -8 13 -20 10 -26 -4 -6 -2 -13 5
-17 6 -4 14 -21 17 -39 6 -28 3 -33 -22 -42 -61 -23 -84 -35 -84 -45 0 -5 -11
-23 -25 -39 -14 -16 -25 -37 -25 -46 0 -19 -19 -37 -71 -68 -30 -18 -41 -20
-73 -11 -20 6 -51 23 -68 38 -26 24 -30 34 -32 83 -1 47 3 61 24 83 38 40 76
53 141 45 l57 -6 -2 29 c-3 41 41 70 116 76 9 0 24 -6 32 -15z m1606 -89 c93
-48 91 -176 -2 -199 -16 -3 -28 -13 -28 -21 0 -31 -71 -15 -116 27 -19 17 -21
27 -17 81 6 63 28 105 61 119 29 11 72 9 102 -7z m-10978 -481 c21 -13 42 -24
48 -24 5 0 10 -6 10 -13 0 -7 9 -30 20 -52 57 -112 -17 -229 -134 -209 -55 9
-113 38 -156 76 -32 29 -35 37 -35 88 0 50 4 62 34 96 19 21 44 45 55 51 35
21 116 14 158 -13z m5894 -100 c33 -25 48 -55 58 -110 11 -64 -63 -134 -141
-134 -56 0 -98 26 -124 77 -37 72 -12 145 66 189 31 18 43 20 73 12 20 -6 50
-21 68 -34z m-6402 -49 c44 -29 80 -95 84 -156 5 -74 -21 -108 -90 -116 -63
-7 -115 12 -165 63 -36 35 -43 49 -43 80 0 66 27 121 69 138 42 19 109 14 145
-9z m8846 -30 c57 -29 82 -80 70 -145 -9 -48 -27 -66 -89 -87 -73 -25 -154 25
-172 106 -7 34 -5 47 13 82 34 65 102 82 178 44z m-13963 -62 c39 -30 42 -38
36 -95 -4 -34 -10 -48 -24 -51 -12 -3 -17 -11 -13 -20 8 -22 -24 -29 -57 -11
-17 8 -38 13 -47 10 -34 -11 -62 33 -62 96 0 62 10 88 31 88 10 0 21 5 24 10
10 16 76 0 112 -27z m10114 -84 c44 -31 34 -59 -21 -59 -19 0 -37 50 -25 70 9
14 13 13 46 -11z m-4821 -209 c17 -17 19 -28 14 -58 -8 -40 -44 -78 -56 -59
-6 9 -8 9 -8 0 0 -20 -23 -15 -56 10 -37 27 -40 67 -6 82 12 5 22 15 22 22 0
11 19 20 53 22 9 0 26 -8 37 -19z m-697 -46 c33 -24 56 -52 73 -87 26 -57 31
-97 11 -97 -7 0 -20 -12 -29 -28 -21 -34 -97 -60 -132 -44 -39 18 -98 75 -112
109 -20 47 -17 77 13 131 26 48 28 49 78 50 43 2 57 -3 98 -34z m-473 -75 c0
-6 6 -9 14 -6 18 7 38 -18 55 -66 16 -47 7 -277 -15 -387 -14 -68 -14 -82 2
-156 15 -76 15 -82 -1 -114 -38 -73 -115 -167 -170 -205 -63 -44 -82 -61 -107
-98 -11 -15 -34 -29 -62 -36 -46 -11 -125 -53 -183 -97 -17 -13 -38 -24 -46
-24 -8 0 -20 -7 -27 -15 -7 -8 -19 -15 -27 -15 -8 0 -29 -6 -46 -13 -18 -8
-50 -20 -72 -27 -22 -7 -58 -21 -80 -31 -101 -48 -230 -39 -275 19 -53 69 -90
123 -106 154 -24 46 -93 126 -131 152 -48 33 -131 105 -172 150 -20 22 -48 52
-63 68 -16 16 -28 35 -28 43 0 8 -4 15 -10 15 -5 0 -10 6 -10 14 0 8 -8 21
-18 28 -14 10 -18 22 -14 50 4 35 6 36 48 40 38 3 44 0 44 -15 0 -13 5 -17 16
-13 9 3 20 6 25 6 14 0 11 50 -3 51 -10 0 -10 2 0 6 6 2 12 11 12 18 0 10 -7
12 -30 5 -23 -7 -30 -5 -30 6 0 8 7 14 15 14 21 0 19 36 -2 45 -17 6 -17 7 0
16 9 6 17 17 17 26 0 9 8 22 18 29 9 7 17 18 17 26 0 7 10 13 22 13 13 0 28 6
35 13 16 16 33 15 47 -2 12 -14 61 -10 61 5 0 14 -24 23 -28 11 -10 -31 -42
-3 -42 36 1 16 2 15 14 0 7 -10 17 -18 21 -18 4 0 14 8 21 18 11 14 13 14 14
2 0 -13 1 -13 10 0 5 8 10 22 10 30 0 12 -2 12 -9 2 -6 -10 -10 -10 -21 3 -14
17 -14 17 19 20 14 1 31 -4 39 -11 7 -8 19 -11 25 -7 8 5 8 8 -1 11 -17 5 -15
22 3 22 22 0 97 -78 89 -93 -5 -8 -4 -9 4 -2 5 6 12 19 14 30 2 12 13 21 26
23 18 3 21 6 12 17 -8 10 -8 15 1 20 6 4 14 2 18 -4 4 -6 13 3 21 24 10 26 18
34 31 30 11 -4 23 2 32 15 7 11 16 18 18 16 2 -3 28 -7 57 -11 51 -5 54 -4 87
30 30 32 34 34 43 19 8 -15 13 -16 26 -5 8 7 20 10 26 6 6 -4 17 -1 25 5 10 9
19 9 28 2 6 -5 27 -9 45 -7 18 1 36 -3 40 -10 4 -6 28 -15 54 -18 43 -6 49 -4
66 21 11 15 17 33 15 40 -3 7 1 10 10 6 11 -4 17 2 20 18 l4 23 8 -22 c8 -24
20 -29 30 -13 10 16 25 12 19 -5 -5 -11 1 -15 22 -16 16 0 23 -3 17 -6 -23 -9
-14 -20 13 -15 23 4 25 2 18 -24 -5 -23 -4 -27 6 -17 9 8 20 8 46 -3 19 -8 34
-10 34 -5 0 5 -7 12 -16 15 -8 3 -13 10 -9 16 3 6 15 6 29 0 21 -7 25 -5 28
15 4 16 1 22 -9 18 -20 -8 -16 15 5 26 14 7 21 5 30 -10 15 -24 35 -24 58 -2
9 10 28 16 41 15 12 -2 23 1 23 7 0 6 -4 11 -10 11 -5 0 -10 5 -10 10 0 6 5
10 10 10 6 0 10 -5 10 -11z m12495 -3 c40 -17 53 -39 59 -99 3 -39 0 -49 -23
-70 -74 -68 -107 -72 -180 -22 -28 19 -59 35 -68 36 -15 0 -14 2 4 9 13 5 24
21 28 42 10 45 30 75 68 98 38 24 66 25 112 6z m-6094 -11 c15 -4 32 -17 39
-33 14 -30 19 -82 8 -82 -5 0 -8 -5 -8 -12 0 -7 -15 -25 -32 -40 -42 -36 -96
-38 -132 -5 -28 25 -33 45 -22 102 10 58 70 87 147 70z m-1761 -50 c31 -16 43
-33 54 -77 5 -22 0 -33 -25 -58 -34 -32 -60 -36 -120 -20 -31 9 -37 15 -42 45
-10 63 32 124 86 125 10 0 31 -7 47 -15z m4070 -20 c61 -31 86 -95 59 -148
-15 -28 -45 -57 -59 -57 -6 0 -24 -7 -41 -15 -27 -14 -33 -14 -64 1 -48 23
-75 63 -77 117 -2 38 2 49 32 80 29 30 42 36 78 37 24 0 56 -7 72 -15z m-9580
-25 c0 -5 -4 -10 -10 -10 -5 0 -10 5 -10 10 0 6 5 10 10 10 6 0 10 -4 10 -10z
m13158 -112 c3 -22 -2 -26 -33 -32 -20 -4 -42 -3 -48 2 -22 17 -48 22 -46 9 1
-6 -1 -20 -6 -31 -5 -12 -3 -21 6 -26 7 -5 11 -12 7 -15 -3 -4 -16 0 -27 7
-19 11 -21 19 -15 53 7 45 17 55 55 55 14 0 34 6 45 14 25 19 58 0 62 -36z
m-13678 -62 c0 -3 -4 -8 -10 -11 -5 -3 -10 -1 -10 4 0 6 5 11 10 11 6 0 10 -2
10 -4z m-120 -167 c0 -11 -27 -12 -34 0 -3 4 -3 11 0 14 8 8 34 -3 34 -14z
m9740 -343 c14 -2 40 -11 57 -20 18 -10 38 -14 44 -11 6 4 9 1 7 -6 -1 -8 6
-27 16 -42 23 -33 29 -93 13 -121 -6 -12 -11 -25 -12 -31 -2 -22 -29 -61 -57
-84 -23 -18 -47 -26 -89 -29 -49 -4 -65 0 -103 22 -78 46 -119 120 -112 205 2
24 10 47 17 52 8 5 10 9 6 9 -16 0 23 44 50 56 25 12 87 12 163 0z m1458 -96
c7 -12 8 -20 2 -20 -5 0 -10 5 -10 10 0 6 -9 10 -20 10 -19 0 -26 11 -14 23 9
9 28 -1 42 -23z m-4148 -155 c37 -19 80 -75 80 -104 0 -53 -73 -121 -131 -121
-16 0 -47 9 -68 20 -47 23 -57 60 -39 138 8 40 18 57 37 67 34 19 85 19 121 0z
m-9173 -69 c12 -4 24 -2 27 3 10 15 36 2 29 -15 -3 -8 0 -14 6 -14 6 0 11 7
11 16 0 13 7 15 33 10 17 -4 39 -8 47 -9 9 -2 20 -6 27 -10 6 -4 18 -4 27 -1
9 3 16 1 16 -6 0 -6 8 -9 18 -6 12 4 24 -5 41 -29 13 -20 21 -38 19 -41 -3 -3
0 -29 7 -57 11 -44 13 -90 6 -143 -2 -21 -109 -123 -150 -143 -35 -18 -47 -20
-88 -11 -26 6 -79 27 -117 47 -39 19 -82 40 -95 47 -14 6 -29 23 -35 39 -6 15
-14 27 -18 27 -4 0 -8 11 -8 24 0 14 -4 28 -10 31 -12 8 -13 105 -1 105 4 0 6
11 4 24 -4 19 3 27 37 45 23 12 45 19 50 16 16 -10 75 31 78 55 2 13 7 19 10
13 4 -6 17 -13 29 -17z m16163 -75 c79 -57 114 -179 70 -241 -38 -54 -96 -83
-166 -84 -54 -1 -65 3 -107 34 -25 19 -50 46 -56 60 -21 55 -23 66 -24 95 0
38 11 75 24 75 5 0 9 6 9 13 0 15 30 35 90 59 53 21 122 16 160 -11z m-14499
-152 c37 -26 79 -98 79 -135 0 -18 -11 -43 -28 -63 -24 -30 -36 -35 -84 -39
-50 -4 -57 -2 -84 24 -16 16 -37 47 -47 68 -16 37 -16 43 -1 88 8 26 21 48 29
48 7 0 18 7 25 15 18 22 77 18 111 -6z m7048 4 c9 -16 12 -16 21 -3 9 13 12
13 21 -2 5 -10 18 -18 28 -18 18 0 51 -25 114 -86 27 -25 32 -38 32 -75 -1
-82 -45 -121 -162 -141 -58 -10 -79 -9 -113 2 -73 24 -150 114 -150 174 0 51
50 136 81 136 10 0 19 5 19 11 0 5 4 8 9 5 5 -4 20 -2 33 3 36 15 56 13 67 -6z
m4088 -88 c68 -34 91 -89 61 -152 -15 -31 -31 -47 -64 -63 -60 -28 -102 -19
-154 31 -32 31 -40 46 -40 75 0 39 30 97 58 114 26 14 105 12 139 -5z m-2731
-71 c54 -26 104 -88 104 -130 0 -65 -65 -126 -135 -126 -44 0 -87 24 -124 69
-55 66 -39 158 33 189 42 18 81 17 122 -2z m-6611 -54 c36 -17 46 -29 64 -76
28 -74 27 -85 -11 -121 -69 -65 -181 -42 -225 47 -34 66 -30 93 18 141 37 37
45 41 76 36 19 -3 54 -15 78 -27z m11838 -177 c18 -17 19 -17 33 2 13 17 16
18 24 5 6 -8 8 -21 5 -28 -3 -9 1 -11 15 -7 15 5 22 0 30 -19 15 -41 -12 -66
-71 -66 l-47 0 1 34 c1 25 -5 40 -22 55 -20 17 -21 21 -7 21 9 0 14 5 11 10
-10 16 7 12 28 -7z m-12656 -68 c25 -28 33 -44 28 -59 -3 -12 -7 -28 -9 -36
-1 -8 -10 -32 -19 -52 -9 -21 -17 -42 -17 -47 0 -25 -58 -68 -99 -74 -72 -9
-117 20 -149 100 -13 29 -12 37 8 82 18 39 32 54 69 73 25 12 52 31 59 41 24
32 88 18 129 -28z m5732 -32 c1 19 3 20 25 11 13 -5 14 -9 4 -21 -9 -11 -9
-16 3 -23 12 -8 11 -12 -5 -27 -10 -10 -16 -13 -13 -7 4 6 -2 19 -13 29 -11
10 -20 28 -19 39 0 21 1 21 9 1 7 -17 9 -17 9 -2z m-1921 -392 c47 -24 81 -63
89 -102 5 -24 0 -36 -23 -60 -103 -108 -243 -43 -219 101 12 74 78 100 153 61z
m-727 -253 c38 -21 69 -64 69 -95 0 -23 -38 -94 -59 -110 -9 -7 -37 -13 -63
-13 -129 -1 -189 174 -79 235 31 18 81 11 132 -17z m9189 -8 c12 -8 9 -10 -12
-10 -16 0 -28 5 -28 10 0 13 20 13 40 0z m-10612 -146 c30 -20 38 -42 23 -66
-8 -14 -9 -23 -2 -32 14 -17 -4 -39 -53 -65 -30 -15 -43 -18 -53 -9 -7 6 -13
7 -13 2 0 -4 -6 -2 -12 5 -7 6 -13 16 -13 21 0 5 -9 15 -19 23 -31 22 -23 73
16 114 29 30 37 33 68 28 19 -4 45 -13 58 -21z m1030 11 c2 -2 5 -30 7 -63 4
-60 -10 -92 -34 -78 -5 4 -12 2 -16 -4 -8 -14 -45 -12 -73 3 -31 18 -50 57
-44 95 5 34 16 47 47 55 18 4 106 -2 113 -8z m8022 -186 c0 -6 8 -8 19 -4 11
3 23 1 26 -6 6 -8 10 -8 15 1 6 9 11 7 19 -9 7 -12 21 -21 35 -21 26 0 60 -53
70 -110 13 -72 -59 -150 -138 -150 -119 0 -203 75 -192 171 7 54 80 140 106
124 6 -3 10 -1 10 4 0 6 7 11 15 11 8 0 15 -5 15 -11z m2561 -335 c28 -14 30
-19 25 -48 -5 -24 -2 -37 9 -46 14 -12 14 -15 -1 -32 -10 -10 -22 -28 -28 -39
-6 -11 -23 -28 -38 -37 -23 -14 -32 -14 -68 -2 -63 21 -100 64 -100 117 0 32
4 43 15 43 8 0 25 10 37 23 58 59 73 61 149 21z m680 -195 c21 -23 26 -35 19
-47 -5 -9 -17 -34 -26 -55 -21 -47 -62 -70 -109 -61 -39 7 -48 16 -63 61 -7
22 -7 35 -1 39 6 3 8 12 5 20 -3 7 1 17 8 21 7 5 18 18 25 31 10 18 20 22 62
22 44 0 55 -4 80 -31z m-9661 -55 c37 -31 38 -47 4 -73 -14 -11 -23 -25 -19
-31 7 -11 -54 -14 -104 -4 -32 7 -32 8 -25 48 12 77 18 83 68 84 35 1 52 -5
76 -24z m-1427 -540 c18 -9 47 -30 65 -47 27 -27 32 -38 32 -79 0 -37 -4 -50
-17 -55 -10 -4 -26 -15 -36 -24 -58 -54 -172 -17 -200 65 -12 34 -13 52 -4 85
6 22 15 41 20 41 5 0 15 7 23 15 20 20 77 19 117 -1z m120 -503 c47 -20 87
-62 87 -92 0 -25 -31 -91 -50 -106 -8 -7 -39 -13 -68 -13 -48 0 -57 4 -84 32
-40 43 -47 65 -35 107 13 44 42 78 71 84 11 2 24 5 28 6 3 0 26 -8 51 -18z"/>
<path d="M7078 10563 c7 -3 16 -2 19 1 4 3 -2 6 -13 5 -11 0 -14 -3 -6 -6z"/>
<path d="M5972 10340 c-10 -17 -10 -20 5 -20 9 0 13 3 10 7 -4 3 -2 12 4 20 6
7 7 13 3 13 -5 0 -15 -9 -22 -20z"/>
<path d="M5880 10313 c0 -14 20 -39 20 -25 0 6 7 12 16 12 8 0 12 -5 9 -10 -3
-6 1 -13 10 -16 21 -8 25 -3 18 24 -4 17 -13 22 -39 22 -19 0 -34 -3 -34 -7z"/>
<path d="M5914 10229 c-3 -6 -1 -16 5 -22 8 -8 11 -5 11 11 0 24 -5 28 -16 11z"/>
<path d="M7965 10190 c4 -6 11 -8 16 -5 14 9 11 15 -7 15 -8 0 -12 -5 -9 -10z"/>
<path d="M7998 10179 c-8 -21 30 -59 60 -59 33 0 27 14 -12 28 -19 7 -36 21
-38 30 -3 15 -4 16 -10 1z"/>
<path d="M8071 10094 c0 -11 3 -14 6 -6 3 7 2 16 -1 19 -3 4 -6 -2 -5 -13z"/>
<path d="M6940 10060 c0 -5 5 -10 10 -10 6 0 10 5 10 10 0 6 -4 10 -10 10 -5
0 -10 -4 -10 -10z"/>
<path d="M8087 10062 c-9 -2 -15 -7 -13 -11 3 -4 -9 -5 -26 -3 -27 4 -29 2
-23 -17 5 -15 2 -21 -9 -21 -9 0 -16 -5 -16 -10 0 -7 -6 -7 -19 0 -37 19 -46
10 -17 -17 29 -26 29 -26 45 -6 16 19 71 38 71 24 0 -4 14 -12 30 -18 17 -6
29 -17 28 -25 -2 -7 4 -13 12 -13 8 0 20 -4 27 -8 22 -14 24 12 3 33 -12 12
-19 24 -15 28 11 11 55 -46 49 -63 -4 -10 1 -22 12 -30 18 -13 17 -14 -13 -15
-38 0 -48 -12 -33 -40 14 -26 30 -26 23 1 -5 19 -3 21 28 14 19 -4 41 -11 49
-16 13 -7 13 -8 -2 -9 -14 0 -13 -7 10 -47 14 -27 34 -54 43 -61 11 -7 17 -24
17 -43 -1 -16 4 -35 11 -42 10 -9 11 -4 6 26 -6 30 -4 37 8 37 9 0 18 -4 21
-8 3 -5 19 -7 36 -4 24 3 36 -1 55 -24 29 -34 41 -27 27 16 -15 42 -103 143
-115 131 -6 -6 -4 -20 7 -36 25 -38 9 -46 -17 -10 -12 16 -29 37 -37 46 -17
18 -36 45 -51 75 -6 12 -21 27 -34 34 -12 7 -31 28 -42 49 -20 39 -103 89
-136 83z m348 -342 c3 -5 -3 -10 -14 -10 -11 0 -23 5 -26 10 -3 6 3 10 14 10
11 0 23 -4 26 -10z"/>
<path d="M7170 9945 c0 -8 5 -15 10 -15 6 0 10 7 10 15 0 8 -4 15 -10 15 -5 0
-10 -7 -10 -15z"/>
<path d="M6735 9930 c-3 -5 1 -10 10 -10 9 0 13 5 10 10 -3 6 -8 10 -10 10 -2
0 -7 -4 -10 -10z"/>
<path d="M7658 9923 c6 -2 18 -2 25 0 6 3 1 5 -13 5 -14 0 -19 -2 -12 -5z"/>
<path d="M7700 9911 c-7 -14 -7 -21 0 -21 5 0 10 5 10 11 0 6 8 8 19 4 11 -3
22 -1 26 5 3 5 2 10 -4 10 -5 0 -16 3 -24 6 -10 3 -20 -3 -27 -15z"/>
<path d="M6564 9884 c-4 -16 -12 -23 -20 -20 -8 3 -14 1 -14 -4 0 -13 27 -13
36 1 7 13 56 3 66 -14 5 -8 8 -6 8 6 0 9 -7 17 -15 17 -8 0 -20 9 -27 20 -17
27 -26 25 -34 -6z"/>
<path d="M8818 9865 c2 -15 0 -25 -7 -25 -6 0 -11 -5 -11 -11 0 -5 4 -8 10 -4
5 3 21 3 35 -1 20 -5 23 -9 15 -19 -8 -10 -7 -16 6 -23 16 -9 15 -12 -5 -41
-24 -33 -23 -81 1 -81 9 0 9 3 0 12 -7 7 -12 15 -12 19 0 10 54 8 68 -4 24
-19 26 4 4 49 -13 27 -20 54 -16 66 7 22 -17 53 -58 74 -35 18 -36 18 -30 -11z"/>
<path d="M7671 9854 c0 -11 3 -14 6 -6 3 7 2 16 -1 19 -3 4 -6 -2 -5 -13z"/>
<path d="M6375 9830 c-7 -12 2 -30 16 -30 5 0 9 9 9 20 0 21 -15 27 -25 10z"/>
<path d="M9526 9813 c9 -16 25 -35 35 -44 14 -12 15 -19 7 -27 -9 -9 -6 -12
15 -12 27 0 53 -31 42 -50 -3 -6 1 -7 9 -4 11 4 16 0 16 -12 1 -22 23 -54 37
-54 6 0 16 6 22 14 10 11 9 16 -3 23 -8 4 -23 28 -34 53 -22 52 -60 93 -102
110 -17 7 -30 16 -30 21 0 5 -7 9 -16 9 -15 0 -14 -3 2 -27z"/>
<path d="M6332 9806 c2 -27 18 -37 18 -11 0 8 0 18 1 22 0 4 -4 9 -10 11 -6 2
-10 -7 -9 -22z"/>
<path d="M5784 9795 c-6 -25 -13 -29 -49 -26 -15 1 -17 0 -7 -7 8 -5 13 -13
13 -18 -1 -5 22 -10 50 -11 43 -1 49 0 38 13 -7 9 -20 12 -32 8 -20 -6 -20 -6
-4 10 18 19 23 56 7 56 -5 0 -12 -11 -16 -25z"/>
<path d="M5825 9810 c3 -5 8 -10 11 -10 2 0 4 5 4 10 0 6 -5 10 -11 10 -5 0
-7 -4 -4 -10z"/>
<path d="M6957 9797 c8 -39 103 -69 103 -32 0 20 -27 38 -58 37 -15 0 -32 4
-38 9 -8 6 -10 2 -7 -14z"/>
<path d="M9908 9790 c-9 -22 -18 -30 -30 -26 -11 2 -18 -1 -18 -9 0 -8 -10
-15 -22 -17 -19 -2 -23 -9 -21 -36 0 -18 3 -36 6 -38 6 -6 49 16 59 31 4 5 16
4 31 -4 14 -7 34 -10 46 -6 15 5 21 2 21 -10 0 -8 12 -21 28 -27 21 -9 23 -12
10 -15 -29 -7 -22 -31 7 -25 18 3 25 11 25 28 0 24 -48 84 -67 84 -17 0 -22
38 -7 51 8 6 14 20 14 30 0 15 -7 19 -34 19 -29 0 -37 -5 -48 -30z"/>
<path d="M6170 9780 c0 -5 5 -10 10 -10 6 0 10 5 10 10 0 6 -4 10 -10 10 -5 0
-10 -4 -10 -10z"/>
<path d="M6465 9780 c-3 -5 -2 -10 4 -10 5 0 13 5 16 10 3 6 2 10 -4 10 -5 0
-13 -4 -16 -10z"/>
<path d="M7890 9781 c0 -5 7 -12 16 -15 14 -5 15 -4 4 9 -14 17 -20 19 -20 6z"/>
<path d="M5666 9765 c-3 -8 -1 -15 4 -15 6 0 10 7 10 15 0 8 -2 15 -4 15 -2 0
-6 -7 -10 -15z"/>
<path d="M6135 9770 c-3 -5 1 -10 10 -10 9 0 13 5 10 10 -3 6 -8 10 -10 10 -2
0 -7 -4 -10 -10z"/>
<path d="M6422 9768 c-14 -14 -16 -28 -3 -28 9 0 24 30 18 36 -2 2 -9 -2 -15
-8z"/>
<path d="M6830 9755 c0 -8 2 -15 4 -15 2 0 6 7 10 15 3 8 1 15 -4 15 -6 0 -10
-7 -10 -15z"/>
<path d="M9228 9753 c7 -3 16 -2 19 1 4 3 -2 6 -13 5 -11 0 -14 -3 -6 -6z"/>
<path d="M5570 9702 c0 -11 6 -22 14 -25 10 -4 12 0 9 14 -7 27 -23 34 -23 11z"/>
<path d="M6110 9710 c0 -5 7 -10 15 -10 8 0 15 5 15 10 0 6 -7 10 -15 10 -8 0
-15 -4 -15 -10z"/>
<path d="M9744 9679 c-3 -6 -1 -16 5 -22 8 -8 11 -5 11 11 0 24 -5 28 -16 11z"/>
<path d="M9869 9664 c-11 -14 -10 -15 11 -12 13 1 25 9 28 16 5 17 -23 15 -39
-4z"/>
<path d="M8570 9661 c0 -5 11 -16 25 -25 27 -18 30 -15 15 15 -11 19 -40 27
-40 10z"/>
<path d="M8390 9641 c0 -11 48 -51 61 -51 4 0 0 13 -9 30 -16 28 -52 42 -52
21z"/>
<path d="M9910 9640 c0 -5 5 -10 11 -10 5 0 7 5 4 10 -3 6 -8 10 -11 10 -2 0
-4 -4 -4 -10z"/>
<path d="M6880 9626 c0 -9 7 -12 20 -9 11 3 20 9 20 14 0 5 -9 9 -20 9 -11 0
-20 -6 -20 -14z"/>
<path d="M9740 9630 c-9 -6 -10 -10 -3 -10 6 0 15 5 18 10 8 12 4 12 -15 0z"/>
<path d="M9780 9635 c0 -13 31 -36 41 -33 7 2 0 12 -15 21 -14 10 -26 15 -26
12z"/>
<path d="M9868 9603 c7 -3 16 -2 19 1 4 3 -2 6 -13 5 -11 0 -14 -3 -6 -6z"/>
<path d="M9440 9590 c0 -5 5 -10 10 -10 6 0 10 5 10 10 0 6 -4 10 -10 10 -5 0
-10 -4 -10 -10z"/>
<path d="M10028 9593 c7 -3 16 -2 19 1 4 3 -2 6 -13 5 -11 0 -14 -3 -6 -6z"/>
<path d="M9650 9575 c0 -8 7 -15 15 -15 8 0 15 4 15 9 0 5 -7 11 -15 15 -9 3
-15 0 -15 -9z"/>
<path d="M9890 9560 c0 -5 5 -10 10 -10 6 0 10 5 10 10 0 6 -4 10 -10 10 -5 0
-10 -4 -10 -10z"/>
<path d="M5990 9541 c0 -6 12 -16 27 -23 35 -17 42 -40 12 -37 -49 4 -56 0
-56 -33 0 -18 2 -27 5 -20 2 6 12 12 23 12 10 0 19 6 19 13 0 8 4 7 10 -3 8
-13 10 -13 10 2 0 9 10 20 21 23 12 4 18 10 13 14 -5 3 -9 13 -9 21 0 8 -10
16 -22 18 -13 2 -23 8 -23 13 0 5 -7 9 -15 9 -8 0 -15 -4 -15 -9z"/>
<path d="M7377 9533 c-3 -5 6 -18 19 -30 29 -26 32 -15 5 16 -11 12 -21 18
-24 14z"/>
<path d="M8410 9516 c0 -2 7 -9 15 -16 13 -11 14 -10 9 4 -5 14 -24 23 -24 12z"/>
<path d="M8486 9495 c16 -24 34 -33 34 -17 0 8 -37 42 -45 42 -3 0 2 -11 11
-25z"/>
<path d="M8545 9500 c-7 -12 11 -40 26 -40 14 0 10 26 -5 39 -10 9 -16 9 -21
1z"/>
<path d="M8395 9316 c1 -34 7 -62 16 -73 8 -10 20 -30 27 -45 6 -16 16 -28 22
-28 12 0 13 5 1 28 -5 9 -15 44 -21 77 -21 106 -46 128 -45 41z"/>
<path d="M8516 9314 c3 -22 15 -52 26 -69 l19 -30 -7 40 c-12 66 -19 88 -33
93 -9 3 -11 -6 -5 -34z"/>
<path d="M9911 9291 c-11 -7 -11 -9 0 -14 8 -3 2 -6 -13 -6 -26 -1 -28 -4 -28
-43 0 -49 19 -91 21 -48 1 14 1 31 0 38 -1 7 4 12 11 11 21 -3 48 12 48 27 0
8 -4 14 -10 14 -5 0 -7 7 -4 15 7 17 -4 19 -25 6z"/>
<path d="M8625 9280 c3 -5 8 -10 11 -10 2 0 4 5 4 10 0 6 -5 10 -11 10 -5 0
-7 -4 -4 -10z"/>
<path d="M9103 9184 c-4 -11 -14 -14 -34 -10 -30 6 -59 -14 -59 -40 0 -8 -4
-14 -9 -14 -12 0 -24 -37 -16 -50 4 -7 14 -6 28 2 12 7 25 11 30 10 4 -1 7 3
7 8 0 6 9 10 21 10 29 0 49 23 42 50 -4 16 -3 21 5 16 17 -10 32 2 25 19 -7
20 -32 19 -40 -1z"/>
<path d="M8567 9106 c10 -13 19 -23 21 -21 7 6 -19 45 -29 45 -5 0 -2 -11 8
-24z"/>
<path d="M5707 9083 c-16 -4 -16 -7 5 -29 26 -27 48 -31 48 -9 0 8 -4 15 -10
15 -5 0 -10 7 -10 15 0 15 -2 16 -33 8z"/>
<path d="M10835 9019 c-10 -15 3 -25 16 -12 7 7 7 13 1 17 -6 3 -14 1 -17 -5z"/>
<path d="M5756 9012 c-7 -11 4 -52 13 -52 4 0 6 14 3 30 -4 31 -7 35 -16 22z"/>
<path d="M10830 8970 c0 -5 5 -10 10 -10 6 0 10 5 10 10 0 6 -4 10 -10 10 -5
0 -10 -4 -10 -10z"/>
<path d="M10876 8965 c-3 -8 3 -19 14 -25 24 -13 27 -13 33 4 3 8 -4 18 -18
24 -18 8 -25 8 -29 -3z"/>
<path d="M9880 8925 c0 -8 5 -15 10 -15 6 0 10 7 10 15 0 8 -4 15 -10 15 -5 0
-10 -7 -10 -15z"/>
<path d="M10840 8930 c0 -5 -8 -10 -17 -10 -14 0 -15 -2 -4 -12 11 -10 14 -10
18 0 3 6 11 12 19 12 8 0 14 5 14 10 0 6 -7 10 -15 10 -8 0 -15 -4 -15 -10z"/>
<path d="M9885 8870 c-3 -5 -1 -10 4 -10 6 0 11 5 11 10 0 6 -2 10 -4 10 -3 0
-8 -4 -11 -10z"/>
<path d="M5790 8850 c0 -5 5 -10 11 -10 5 0 7 5 4 10 -3 6 -8 10 -11 10 -2 0
-4 -4 -4 -10z"/>
<path d="M9796 8842 c-3 -5 -1 -24 3 -43 5 -19 12 -51 15 -71 6 -32 10 -36 33
-34 14 2 34 14 44 28 18 25 18 26 -1 50 -11 14 -16 28 -13 32 3 3 0 6 -9 6 -8
0 -23 9 -33 20 -20 22 -31 25 -39 12z"/>
<path d="M8540 8786 c0 -13 47 -32 57 -23 7 7 -27 37 -43 37 -8 0 -14 -6 -14
-14z"/>
<path d="M8460 8775 c7 -9 15 -13 17 -11 7 7 -7 26 -19 26 -6 0 -6 -6 2 -15z"/>
<path d="M10880 8741 c0 -5 5 -13 10 -16 6 -3 10 -2 10 4 0 5 -4 13 -10 16 -5
3 -10 2 -10 -4z"/>
<path d="M10970 8740 c0 -5 5 -10 10 -10 6 0 10 5 10 10 0 6 -4 10 -10 10 -5
0 -10 -4 -10 -10z"/>
<path d="M11010 8735 c0 -9 5 -15 11 -13 6 2 11 8 11 13 0 5 -5 11 -11 13 -6
2 -11 -4 -11 -13z"/>
<path d="M10800 8729 c0 -5 5 -9 11 -9 5 0 8 -4 5 -9 -6 -9 35 -41 53 -41 5 0
11 6 14 13 4 10 -2 13 -19 9 -19 -3 -24 0 -24 16 0 11 -8 22 -20 25 -11 3 -20
1 -20 -4z"/>
<path d="M10763 8716 c0 -8 9 -17 19 -19 14 -4 18 -1 16 11 -4 21 -35 28 -35
8z"/>
<path d="M10077 8709 c-14 -8 -16 -14 -6 -25 9 -11 8 -14 -5 -14 -11 0 -16 -9
-16 -28 0 -26 3 -28 48 -29 42 -2 45 -1 29 12 -18 13 -18 13 0 18 17 4 17 5
-1 6 -18 1 -18 2 -2 20 12 13 14 21 6 26 -6 4 -18 -1 -25 -11 -12 -16 -14 -16
-15 -3 0 8 5 20 12 27 15 15 0 15 -25 1z"/>
<path d="M10910 8700 c-5 -14 -4 -70 2 -70 12 0 15 14 7 45 -3 17 -8 28 -9 25z"/>
<path d="M9840 8680 c0 -5 5 -10 10 -10 6 0 10 5 10 10 0 6 -4 10 -10 10 -5 0
-10 -4 -10 -10z"/>
<path d="M10770 8669 c0 -6 6 -9 13 -6 6 2 17 -3 24 -12 6 -9 15 -12 20 -8 9
10 -24 37 -44 37 -7 0 -13 -5 -13 -11z"/>
<path d="M9795 8645 c-25 -8 -31 -16 -33 -45 -1 -19 -8 -37 -13 -41 -7 -4 -10
-25 -7 -48 2 -29 0 -41 -9 -41 -7 0 -13 -4 -13 -10 0 -5 6 -10 14 -10 7 0 19
-7 26 -15 15 -18 51 -20 45 -2 -3 6 4 37 16 67 11 30 23 73 25 95 3 21 7 42
10 46 7 12 -30 15 -61 4z"/>
<path d="M9436 8629 c3 -5 18 -16 35 -24 24 -13 29 -13 29 -2 0 8 -16 18 -35
24 -19 6 -32 7 -29 2z"/>
<path d="M10790 8628 c24 -23 60 -32 60 -15 0 7 -6 14 -12 15 -7 0 -24 4 -38
8 -23 7 -23 6 -10 -8z"/>
<path d="M9975 8610 c-3 -5 1 -10 9 -10 9 0 16 5 16 10 0 6 -4 10 -9 10 -6 0
-13 -4 -16 -10z"/>
<path d="M5753 8550 c-2 -18 0 -18 13 -6 17 18 18 26 1 26 -7 0 -13 -9 -14
-20z"/>
<path d="M10810 8560 c8 -5 28 -10 44 -10 39 0 30 6 -19 13 -27 4 -35 3 -25
-3z"/>
<path d="M10147 8553 c-4 -3 -7 -14 -7 -23 0 -9 -9 -25 -20 -35 -16 -14 -19
-26 -14 -56 l6 -38 -31 12 c-22 8 -34 21 -39 41 -10 37 -32 47 -32 13 0 -13
-9 -34 -20 -47 -24 -27 -25 -39 -5 -46 11 -5 12 -10 2 -25 -16 -25 -17 -25
-63 16 -40 36 -46 39 -57 29 -8 -9 14 -54 27 -54 6 -1 28 -15 48 -33 30 -25
36 -37 31 -55 -3 -14 -11 -21 -20 -18 -8 3 -18 -4 -25 -19 -6 -14 -15 -25 -19
-25 -14 0 -59 -50 -59 -66 0 -23 28 -72 47 -83 13 -7 30 -3 65 16 40 22 48 31
48 55 0 21 5 28 19 28 28 0 41 22 35 58 -5 31 -4 32 20 26 23 -5 26 -3 26 20
0 19 9 30 33 42 17 9 36 23 40 30 4 8 13 14 20 14 7 0 20 17 28 37 16 35 15
39 -4 65 -11 15 -27 28 -34 28 -7 0 -13 12 -13 28 0 54 -15 84 -33 65z m-72
-183 c8 -39 0 -50 -36 -50 -43 0 -50 27 -13 57 37 30 41 29 49 -7z m100 19 c4
-6 -3 -7 -19 -3 -27 6 -34 -4 -15 -23 7 -7 7 -13 1 -17 -5 -3 -15 1 -22 9 -7
8 -19 15 -26 15 -8 0 -14 6 -14 13 0 16 86 21 95 6z"/>
<path d="M10030 8350 c0 -11 5 -20 10 -20 6 0 10 9 10 20 0 11 -4 20 -10 20
-5 0 -10 -9 -10 -20z"/>
<path d="M10065 8540 c3 -5 8 -10 11 -10 2 0 4 5 4 10 0 6 -5 10 -11 10 -5 0
-7 -4 -4 -10z"/>
<path d="M10265 8520 c3 -5 8 -10 11 -10 2 0 4 5 4 10 0 6 -5 10 -11 10 -5 0
-7 -4 -4 -10z"/>
<path d="M9962 8509 c2 -7 10 -15 17 -17 8 -3 12 1 9 9 -2 7 -10 15 -17 17 -8
3 -12 -1 -9 -9z"/>
<path d="M10290 8431 c0 -5 -6 -16 -14 -23 -12 -12 -11 -17 3 -35 21 -27 61
-40 61 -20 0 8 -9 22 -20 32 -13 11 -18 25 -14 37 3 10 1 18 -5 18 -6 0 -11
-4 -11 -9z"/>
<path d="M10275 8330 c-3 -5 1 -10 10 -10 9 0 13 5 10 10 -3 6 -8 10 -10 10
-2 0 -7 -4 -10 -10z"/>
<path d="M10270 8302 c0 -10 41 -35 47 -28 9 8 -17 36 -33 36 -8 0 -14 -3 -14
-8z"/>
<path d="M10317 8239 c7 -7 15 -10 18 -7 3 3 -2 9 -12 12 -14 6 -15 5 -6 -5z"/>
<path d="M10305 8180 c-3 -5 -1 -10 4 -10 6 0 11 5 11 10 0 6 -2 10 -4 10 -3
0 -8 -4 -11 -10z"/>
<path d="M10322 8118 c6 -17 76 -50 89 -42 6 3 -10 17 -35 30 -51 27 -59 29
-54 12z"/>
<path d="M10660 8120 c0 -5 5 -10 11 -10 5 0 7 5 4 10 -3 6 -8 10 -11 10 -2 0
-4 -4 -4 -10z"/>
<path d="M10431 8043 c36 -49 79 -78 79 -55 0 13 -65 72 -79 72 -11 0 -11 -3
0 -17z"/>
<path d="M10528 7963 c7 -3 16 -2 19 1 4 3 -2 6 -13 5 -11 0 -14 -3 -6 -6z"/>
<path d="M10617 7954 c-8 -8 1 -24 14 -24 5 0 9 7 9 15 0 15 -12 20 -23 9z"/>
<path d="M10600 7901 c11 -21 58 -61 71 -61 17 0 8 31 -16 55 -30 31 -71 35
-55 6z"/>
<path d="M6100 7811 c0 -6 4 -13 10 -16 6 -3 7 1 4 9 -7 18 -14 21 -14 7z"/>
<path d="M10326 7754 c-17 -24 -17 -27 -2 -42 13 -13 20 -14 34 -6 21 14 28
54 10 65 -19 12 -21 11 -42 -17z"/>
<path d="M6000 7740 c1 -8 8 -26 16 -40 l15 -25 -6 30 c-7 33 -25 59 -25 35z"/>
<path d="M6060 7680 c0 -5 -7 -10 -15 -10 -28 0 -16 -22 45 -81 52 -52 63 -59
87 -53 32 7 50 21 40 30 -3 3 -16 -1 -28 -10 -20 -14 -24 -13 -51 5 -18 13
-28 29 -28 45 0 29 -26 84 -40 84 -6 0 -10 -4 -10 -10z"/>
<path d="M8070 7556 c0 -13 110 -56 142 -56 27 0 29 -2 17 -17 -12 -15 -12
-16 3 -10 19 7 43 -17 33 -33 -8 -13 25 -41 41 -36 6 2 17 1 24 -4 9 -6 7 -10
-9 -15 -29 -9 -27 -27 3 -19 25 6 56 -17 56 -42 0 -18 -5 -18 -25 2 -10 11
-24 14 -41 10 -28 -7 -27 -32 0 -29 14 1 16 -4 12 -23 -6 -23 -5 -24 14 -14
12 6 28 9 37 6 29 -12 63 5 63 30 0 13 4 24 10 24 13 0 63 80 56 88 -4 3 -29
5 -58 3 -87 -4 -208 52 -208 96 0 7 8 14 18 14 9 1 -8 5 -38 10 -30 4 -76 11
-102 14 -27 4 -48 5 -48 1z"/>
<path d="M8444 7485 c30 -16 43 -14 31 4 -3 6 -18 11 -33 11 l-27 0 29 -15z"/>
<path d="M8540 7460 c8 -5 24 -10 34 -10 26 0 18 6 -19 14 -22 5 -26 4 -15 -4z"/>
<path d="M8231 7441 c-8 -5 -9 -11 -3 -15 5 -3 12 1 16 9 6 17 6 18 -13 6z"/>
<path d="M8717 7419 c7 -7 15 -10 18 -7 3 3 -2 9 -12 12 -14 6 -15 5 -6 -5z"/>
<path d="M6955 7403 c-52 -7 -59 -11 -45 -28 18 -21 37 -19 68 10 15 14 22 24
17 24 -6 -1 -23 -4 -40 -6z"/>
<path d="M8793 7380 c69 -44 59 -68 -15 -36 -39 17 -146 41 -152 35 -16 -16
127 -184 147 -173 7 4 5 -1 -4 -10 -15 -17 -19 -17 -47 -2 -17 9 -38 16 -47
16 -17 0 -20 17 -4 22 7 2 -4 24 -26 53 -21 28 -42 60 -48 72 -14 32 -36 37
-43 9 -3 -13 -17 -35 -31 -48 -26 -25 -71 -114 -73 -145 0 -10 -2 -42 -4 -71
-2 -35 1 -51 8 -49 6 2 10 11 8 19 -3 22 91 57 103 38 3 -5 16 -10 27 -10 12
0 18 -3 14 -7 -3 -4 13 -12 36 -19 24 -7 53 -15 66 -19 17 -6 23 -4 21 6 -2
14 6 41 20 69 12 23 48 25 54 3 4 -14 5 -13 6 5 0 12 7 22 15 22 8 0 21 3 30
6 10 4 16 1 16 -10 0 -10 6 -13 15 -10 8 4 15 17 15 30 0 25 24 33 34 12 5
-10 7 -10 12 0 3 6 20 12 37 12 28 1 30 2 14 11 -11 6 -25 12 -33 13 -8 1 -13
6 -12 12 3 10 25 10 51 -1 10 -4 17 -3 17 4 0 6 -10 16 -22 21 -32 13 -58 35
-58 49 0 16 2 15 117 -30 58 -23 139 -65 181 -92 43 -28 102 -63 132 -77 110
-53 224 -147 282 -233 45 -66 60 -100 94 -207 l24 -75 -5 74 c-6 86 -27 139
-90 226 -87 122 -221 221 -449 330 -259 124 -310 146 -348 151 -21 3 -56 11
-79 19 -58 21 -59 19 -6 -15z m-153 -116 c0 -14 -3 -15 -17 -3 -10 7 -20 15
-22 16 -2 2 5 3 17 3 14 0 22 -6 22 -16z m-53 -10 c-3 -3 -12 -4 -19 -1 -8 3
-5 6 6 6 11 1 17 -2 13 -5z m50 -26 c23 -2 4 -14 -26 -16 -23 -2 -31 2 -31 14
0 12 6 15 23 9 12 -3 27 -7 34 -7z m224 -21 c-1 -12 -15 -9 -19 4 -3 6 1 10 8
8 6 -3 11 -8 11 -12z m-318 -28 c4 -14 -2 -17 -32 -14 -20 1 -37 5 -38 9 -7
17 0 22 31 22 24 0 36 -5 39 -17z"/>
<path d="M7025 7380 c3 -5 8 -10 11 -10 2 0 4 5 4 10 0 6 -5 10 -11 10 -5 0
-7 -4 -4 -10z"/>
<path d="M8257 7344 c-8 -8 1 -24 14 -24 5 0 9 7 9 15 0 15 -12 20 -23 9z"/>
<path d="M10170 7251 c0 -12 6 -21 16 -21 9 0 14 7 12 17 -5 25 -28 28 -28 4z"/>
<path d="M8345 7240 c-21 -23 -12 -39 13 -24 19 12 29 44 14 44 -5 0 -17 -9
-27 -20z"/>
<path d="M9274 7033 c9 -16 -9 -25 -56 -31 -47 -5 -91 -26 -80 -37 4 -5 -1 -5
-10 -2 -10 4 -18 2 -18 -5 0 -10 20 -9 89 6 67 15 104 48 80 70 -9 8 -10 8 -5
-1z"/>
<path d="M8190 6940 c0 -6 -19 -11 -42 -10 -24 0 -74 -2 -113 -4 -124 -8 -253
-9 -264 -2 -6 4 -11 2 -11 -3 0 -6 -11 -11 -25 -11 -22 0 -24 -3 -15 -19 5
-11 36 -41 69 -68 33 -26 64 -60 70 -75 6 -19 17 -28 31 -28 39 0 76 -27 112
-82 13 -20 19 -21 79 -12 63 9 67 13 54 45 -3 9 2 26 12 38 16 20 22 21 48 11
17 -6 40 -21 52 -32 20 -19 29 -20 85 -13 35 4 84 8 111 7 l47 -1 0 40 c0 38
-2 41 -47 61 -51 22 -133 79 -196 135 -38 34 -57 41 -57 23z"/>
<path d="M6590 6851 c0 -5 5 -13 10 -16 6 -3 10 -2 10 4 0 5 -4 13 -10 16 -5
3 -10 2 -10 -4z"/>
<path d="M9617 6730 c-3 -11 -1 -20 4 -20 5 0 9 9 9 20 0 11 -2 20 -4 20 -2 0
-6 -9 -9 -20z"/>
<path d="M9610 6685 c0 -8 5 -15 10 -15 6 0 10 7 10 15 0 8 -4 15 -10 15 -5 0
-10 -7 -10 -15z"/>
<path d="M7240 6446 c0 -2 9 -6 20 -9 11 -3 20 -1 20 4 0 5 -9 9 -20 9 -11 0
-20 -2 -20 -4z"/>
<path d="M10120 9880 c0 -5 9 -10 20 -10 11 0 20 5 20 10 0 6 -9 10 -20 10
-11 0 -20 -4 -20 -10z"/>
<path d="M6340 4750 c0 -5 5 -10 10 -10 6 0 10 5 10 10 0 6 -4 10 -10 10 -5 0
-10 -4 -10 -10z"/>
<path d="M2776 3741 c-3 -5 1 -11 9 -15 9 -3 15 0 15 9 0 16 -16 20 -24 6z"/>
<path d="M9818 1508 c17 -8 26 -8 34 0 9 9 4 12 -22 11 -33 0 -34 -1 -12 -11z"/>
</g>
</svg>
